<?xml version="1.0" encoding="utf-8"?>
<!-- Generator: Adobe Illustrator 24.1.2, SVG Export Plug-In . SVG Version: 6.00 Build 0)  -->
<svg version="1.1" id="Layer_1" xmlns="http://www.w3.org/2000/svg" xmlns:xlink="http://www.w3.org/1999/xlink" x="0px" y="0px"
	 viewBox="0 0 572 572" style="enable-background:new 0 0 572 572;" xml:space="preserve">
<style type="text/css">
	.st0{fill:#1B4D3E;stroke:url(#bgr_1_);stroke-width:10;stroke-miterlimit:10;}
	.st1{opacity:0.2;}
	.st2{fill:#F0E68C;}
	.st3{opacity:0.3;}
	.st4{opacity:0.4;}
	.st5{fill:#1B4D3E;stroke:url(#bgr2_1_);stroke-width:5;stroke-miterlimit:10;}
	.st6{fill-rule:evenodd;clip-rule:evenodd;fill:#F0E68C;}
	.st7{opacity:0.5;}
</style>
<linearGradient id="bgr_1_" gradientUnits="userSpaceOnUse" x1="0" y1="286" x2="572" y2="286">
	<stop  offset="0" style="stop-color:#F0E68C"/>
	<stop  offset="0.0541163" style="stop-color:#F0E588"/>
	<stop  offset="0.1102127" style="stop-color:#F1E27B"/>
	<stop  offset="0.1672154" style="stop-color:#F3DC67"/>
	<stop  offset="0.2248538" style="stop-color:#F6D54A"/>
	<stop  offset="0.2823995" style="stop-color:#F9CB25"/>
	<stop  offset="0.33" style="stop-color:#FCC200"/>
	<stop  offset="0.3776005" style="stop-color:#F9CB25"/>
	<stop  offset="0.4351463" style="stop-color:#F6D54A"/>
	<stop  offset="0.4927846" style="stop-color:#F3DC67"/>
	<stop  offset="0.5497873" style="stop-color:#F1E27B"/>
	<stop  offset="0.6058837" style="stop-color:#F0E588"/>
	<stop  offset="0.66" style="stop-color:#F0E68C"/>
	<stop  offset="0.7157562" style="stop-color:#F0E588"/>
	<stop  offset="0.7735525" style="stop-color:#F1E27B"/>
	<stop  offset="0.8322825" style="stop-color:#F3DC67"/>
	<stop  offset="0.8916675" style="stop-color:#F6D54A"/>
	<stop  offset="0.9509571" style="stop-color:#F9CB25"/>
	<stop  offset="1" style="stop-color:#FCC200"/>
</linearGradient>
<circle id="bgr" class="st0" cx="286" cy="286" r="281"/>
<g id="trees">
	<g id="tree4" class="st1">
		<path class="st2" d="M240.7457733,309.8809509c-4.0597382,13.9131775-8.4203186,27.7498169-11.9960022,41.7861328
			c-1.0737762,4.2150574-2.3213959,3.0027466-4.2703552,1.4422607
			c-6.4282227-5.1468811-12.7894897-10.3778381-19.1459961-15.6134338
			c-6.1088715-5.0316467-12.1676483-10.124115-18.293808-15.134491c-0.4256592-0.348114-1.2282715-0.2359314-1.8555756-0.3377991
			c0.6640015-1.3919067,1.3280029-2.783783,1.9919891-4.1756592c0.3370056-0.3514404,0.6740265-0.7028809,1.0110321-1.0543213
			c0.321106-0.3227539,0.6421967-0.6454773,0.9633179-0.9682312c0.4889984-0.1054077,1.1789398-0.0389404,1.4378052-0.3411865
			c7.5934906-8.8665161,15.1815643-17.7384949,22.6642303-26.6982422c1.2298584-1.4726257,1.4741211-3.1927185-0.0749664-4.9904785
			c-5.3385468-6.1955872-10.2661896-12.7717285-15.9174042-18.6593323c-2.5598297-2.6668701-3.7299957-6.960144-8.0783691-7.7978516
			l0.0145416,0.0090942c-0.3370209-0.3410034-0.6740417-0.6820068-1.0110474-1.0230103
			c-0.9999542-1.7276154-1.9998932-3.4552002-2.9998627-5.182785c5.8947754-2.5450897,9.9241028-7.5636902,14.8646698-11.3622131
			c8.2554626-6.3471222,16.0563812-13.2818909,24.1403503-19.8566589c1.8474274-1.5025024,3.4134064-2.9147949,4.5274811,1.3900757
			c3.6448822,14.0841675,7.9664307,27.9934235,12.0274353,41.9696198
			c4.9803772,14.3095703,7.747406,28.6547546,0.8453979,43.2097778
			C241.1015778,307.5235596,241.0179291,308.7468872,240.7457733,309.8809509z"/>
		<path class="st2" d="M331.2542419,263.1139526c4.0597229-13.9131622,8.4203186-27.7497864,11.9959717-41.7861023
			c1.0737915-4.2150879,2.3214111-3.0027618,4.2703857-1.442276c6.4282227,5.1468811,12.7894592,10.3778381,19.1459656,15.6134491
			c6.1088867,5.0316467,12.1676636,10.124115,18.2938232,15.1344604c0.4256592,0.3481293,1.2282715,0.2359467,1.8555603,0.3378296
			c-0.6639709,1.3919067-1.3279724,2.7837677-1.9919739,4.1756439c-0.3370056,0.3514404-0.6740417,0.7028809-1.0110474,1.054306
			c-0.3210754,0.3227539-0.6421814,0.6455078-0.9633179,0.9682617c-0.4889832,0.1054077-1.1789246,0.0389404-1.4377747,0.3411865
			c-7.5935059,8.8665161-15.1815796,17.7384949-22.6642456,26.6982117
			c-1.2298584,1.4726563-1.4741211,3.1927185,0.0749512,4.9904785c5.338562,6.1956177,10.2662048,12.771759,15.9174194,18.6593323
			c2.559845,2.6669006,3.7299805,6.960144,8.0783691,7.7978516l-0.0145569-0.0090637
			c0.3370361,0.3410034,0.6740417,0.6820068,1.0110474,1.0230103c0.9999695,1.7276001,1.9999084,3.4552002,2.9998779,5.1827698
			c-5.8947754,2.545105-9.9241028,7.5636902-14.8646545,11.3622131
			c-8.2554626,6.3471375-16.0563965,13.2818909-24.1403809,19.8566589
			c-1.8474121,1.5025024-3.4133911,2.9147949-4.5274658-1.3900757
			c-3.6448669-14.0841675-7.9664307-27.9934387-12.0274353-41.9696045
			c-4.9803772-14.3095703-7.747406-28.6547546-0.8453979-43.2097778
			C330.8984375,265.4713745,330.9820557,264.2480164,331.2542419,263.1139526z"/>
	</g>
	<g id="tree3" class="st3">
		<path class="st2" d="M255.5876465,186.9824982c-1.3944702-0.6627502-2.7889404-1.3255157-4.1834412-1.988266
			c-4.0285645-2.2163544-8.017807-4.508606-12.1053772-6.6108856c-1.5914917-0.8184967-2.6795959-1.7789459-1.4235077-3.3681641
			c9.0550232-11.4564972,16.3091736-24.2072144,25.6830292-35.4294586c1.7254639,0.694458,3.4510193,1.3888245,5.1765747,2.0831909
			c0.3403931,0.3307343,0.6807861,0.6614685,1.0211792,0.9922028l-0.0103455-0.0214386
			c1.5748291,5.2542267,6.6610718,7.1897583,10.1505127,10.6264038c6.5647888,6.4654846,6.5970459,6.4186859,13.4402771,0.6713562
			c0.7614441-0.6395111,1.787323-1.0012817,2.4529724-1.7127686c2.5693054-2.74617,6.2599487-4.5653992,7.2779236-8.6123199
			c0.3218384-0.317276,0.6436462-0.6345367,0.9654846-0.9517975c0.3521423-0.3305511,0.7042847-0.6611176,1.0563965-0.991684
			c1.9684448-1.0007629,3.9368896-2.0015259,5.9053345-3.0022888c5.7633057,10.3015747,13.3862305,19.3446655,19.8636475,29.1633301
			c1.7999268,2.7283325,5.0411987,5.3556366,5.1570129,8.1314545c0.1462708,3.505188-4.7298279,3.5067902-7.2991333,5.2188263
			c-2.0402832,1.3595581-4.1940613,2.549881-6.2974548,3.8153229c-1.7308044,0.9980774-3.4616089,1.9961548-5.1924744,2.9942627
			c-0.3416443,0.33638-0.6832886,0.67276-1.0249023,1.00914c0,0,0.0090942-0.0145264,0.0091248-0.014389
			c-8.8865356,3.4743958-16.8036804,8.8078461-25.1755066,13.2575226c-2.9403992,1.5628052-4.9501953,1.5385895-7.749054,0.1234131
			c-8.6184692-4.3576965-16.5821228-9.9609833-25.671936-13.4123077c-0.3233337-0.3205109-0.646698-0.6410065-0.9705505-0.9615631
			C256.2911682,187.6551971,255.9394073,187.3188629,255.5876465,186.9824982z"/>
		<path class="st2" d="M187.1760254,317.8479614c-0.6639862,1.3918762-1.3279877,2.7837524-1.9919891,4.1756592
			c-2.2204895,4.0210266-4.5170288,8.0028381-6.6232452,12.0827637c-0.8200226,1.5885315-1.7822723,2.6745911-3.3744659,1.4208374
			c-11.4779205-9.0381165-24.2524872-16.278717-35.4957123-25.6350708c0.695755-1.722229,1.3914185-3.4445801,2.0870819-5.1669006
			c0.3313599-0.3397827,0.6627045-0.6795349,0.9940643-1.0192871l-0.0214844,0.0103149
			c5.2640533-1.5718689,7.2032013-6.6486206,10.646286-10.1315613c6.4775848-6.5525208,6.4306946-6.5847168,0.6726227-13.4151917
			c-0.6407166-0.7600098-1.0031586-1.7839661-1.7159882-2.4483948c-2.7513123-2.5644836-4.5739288-6.2482605-8.628418-7.2643127
			c-0.3178711-0.3212585-0.6357269-0.6424866-0.9535828-0.9637146c-0.3311768-0.3514709-0.6623535-0.7029419-0.9935455-1.0544128
			c-1.0026245-1.9647522-2.005249-3.9295349-3.0078888-5.8943176c10.3208313-5.752533,19.3808441-13.3612366,29.2178497-19.8265686
			c2.7334442-1.7965393,5.3656616-5.0317535,8.1466827-5.1473694c3.511734-0.1460114,3.5133514,4.7209778,5.2285767,7.2854919
			c1.3621063,2.0364838,2.554657,4.186264,3.822464,6.2857056c0.999939,1.7275696,1.9998779,3.4551544,2.9998627,5.1828003
			c0.3370056,0.3410034,0.6740112,0.6820068,1.0110168,1.0229797c0,0-0.0145416-0.0090942-0.0144043-0.0090942
			c3.4808807,8.8699341,8.8243256,16.7723083,13.2823181,25.1285095c1.5657349,2.9348755,1.5414581,4.940918,0.1236267,7.7345886
			c-4.3658295,8.6023865-9.979599,16.5511475-13.4373779,25.6239929c-0.3211212,0.3227539-0.6422119,0.6454773-0.9633636,0.96875
			C187.8499908,317.145752,187.5130157,317.4968567,187.1760254,317.8479614z"/>
		<path class="st2" d="M384.8239746,255.1469574c0.6640015-1.3918762,1.3280029-2.7837372,1.9919739-4.1756439
			c2.2204895-4.0210419,4.5170593-8.0028381,6.6232605-12.0827637c0.8200378-1.5885315,1.7822571-2.6746063,3.3744507-1.4208527
			c11.4779358,9.0381165,24.2525024,16.2787323,35.4957275,25.6350861c-0.6957703,1.722229-1.3914185,3.4445801-2.0870972,5.1669006
			c-0.3313293,0.3397827-0.6626892,0.6795349-0.9940491,1.0192871l0.0214844-0.0103149
			c-5.2640686,1.5718689-7.2032166,6.6486206-10.6462708,10.1315308c-6.4776001,6.5525513-6.4306946,6.5847473-0.6726379,13.4151917
			c0.6407166,0.7600403,1.0031738,1.7839966,1.7159729,2.4484253c2.7513123,2.5644836,4.5739441,6.2482605,8.6284485,7.2643127
			c0.3178406,0.321228,0.6357117,0.6424561,0.9535522,0.9637146c0.3311768,0.3514709,0.6623535,0.7029419,0.9935608,1.0543823
			c1.0026245,1.9647827,2.005249,3.9295654,3.0079041,5.8943176c-10.3208313,5.752533-19.3808594,13.3612671-29.217865,19.8265991
			c-2.7334595,1.7965393-5.3656616,5.0317383-8.1466675,5.1473694c-3.5117493,0.1459961-3.5133667-4.7210083-5.2285767-7.2854919
			c-1.3621216-2.036499-2.554657-4.1862793-3.8224792-6.2857056c-0.999939-1.7275696-1.9998779-3.4551697-2.9998779-5.1828003
			c-0.3370056-0.3410034-0.6740112-0.6820068-1.0110168-1.0229797c0,0,0.0145569,0.0090637,0.0144348,0.0090942
			c-3.480896-8.8699341-8.8243408-16.7723083-13.2823486-25.1285095c-1.5657043-2.934906-1.5414429-4.9409485-0.1236267-7.7345886
			c4.3658447-8.6023865,9.9796143-16.551178,13.4373779-25.6239929c0.3211365-0.3227539,0.6422424-0.6455078,0.9633789-0.96875
			C384.1499939,255.8491669,384.486969,255.4980621,384.8239746,255.1469574z"/>
		<path class="st2" d="M318.4059143,385.0175171c1.3945007,0.6627502,2.7889709,1.3255005,4.1834717,1.9882507
			c4.0285339,2.2163391,8.0177917,4.508606,12.1053467,6.6108704c1.5914917,0.818512,2.6796265,1.7789612,1.4235229,3.3681946
			c-9.0550232,11.4564819-16.3091736,24.2072144-25.6830139,35.4294434
			c-1.7254639-0.694458-3.4510193-1.3888245-5.1766052-2.0831909c-0.3403931-0.330719-0.6807861-0.6614685-1.0211792-0.992218
			l0.0103455,0.0214539c-1.5748291-5.2542419-6.6610718-7.1897583-10.1504822-10.6264038
			c-6.5647888-6.4654846-6.5970764-6.4187012-13.4403076-0.6713562c-0.7614441,0.6394958-1.787323,1.0012817-2.4529724,1.7127686
			c-2.5692749,2.7461853-6.2599487,4.5653992-7.2779236,8.6123047c-0.3218384,0.3172913-0.6436462,0.634552-0.9654846,0.9518127
			c-0.3521423,0.3305664-0.7042542,0.6611023-1.0563965,0.9916687c-1.9684448,1.0007935-3.9368896,2.0015259-5.9053345,3.0022888
			c-5.7632751-10.3015442-13.3862152-19.3446655-19.8636475-29.1632996
			c-1.7998962-2.7283325-5.0411682-5.3556519-5.1569977-8.1314697c-0.146286-3.505188,4.7298126-3.5068054,7.299118-5.218811
			c2.0402985-1.3595581,4.1940765-2.5498962,6.2974548-3.8153381c1.7308044-0.9980774,3.4616241-1.9961548,5.1924744-2.9942627
			c0.3416748-0.3363953,0.6832886-0.67276,1.0249023-1.0091248c0,0-0.0090942,0.0144958-0.0090942,0.0143738
			c8.8865051-3.4743958,16.8036499-8.8078613,25.1755066-13.2575378c2.9403687-1.5628052,4.9501648-1.5385742,7.7490234-0.1233826
			c8.6184998,4.357666,16.5821228,9.960968,25.671936,13.4122925c0.3233337,0.3205261,0.646698,0.6410217,0.9705505,0.9615479
			C317.7023926,384.3447876,318.0541687,384.6811523,318.4059143,385.0175171z"/>
	</g>
	<g id="tree2" class="st4">
		<path class="st2" d="M304.0329285,142.660553c-0.3218384,0.3172607-0.6436462,0.6345215-0.9653931,0.9524536
			c-4.6903076,1.0619507-8.3509216,4.1947021-12.4004211,6.456543c-2.6186829,1.4626465-4.459198,1.4932251-6.8614807,0.1439667
			c-4.6404419-2.606308-9.3682556-5.0580292-14.0598755-7.5738373c0,0,0.0103455,0.0214386,0.0101929,0.0214081
			c-0.3404541-0.3307495-0.6807556-0.6614532-1.0210266-0.9921722c-1.7255554-0.6943665-3.4511108-1.3887329-5.1765747-2.0831909
			c-1.6995239-3.2196503-5.5773621-3.1927185-8.085495-5.3572388c-1.7607727-1.5195313-2.3274078-2.1605988-0.8761597-4.2470551
			c10.3415985-14.8680496,20.6110687-29.7872543,30.735672-44.8026581c1.6578064-2.4586487,2.2430115-2.025238,3.6357727,0.0617447
			c9.8680725,14.786644,19.7218628,29.5854416,29.8442383,44.1986008c2.0960693,3.026001,1.5238342,4.2551575-1.4368591,5.6175842
			c-2.212677,1.0182037-4.2599182,2.3936005-6.3808289,3.6099091c-1.9684753,1.0007324-3.9369202,2.0014954-5.9052124,3.0021362
			C304.7373657,141.9992676,304.3851624,142.3299103,304.0329285,142.660553z"/>
		<path class="st2" d="M142.7711945,269.493103c0.3178558,0.321228,0.6357117,0.6424561,0.9542389,0.963623
			c1.0639191,4.6815491,4.2025452,8.3353271,6.4686127,12.3772583c1.4653778,2.6138,1.4960175,4.4508667,0.1442413,6.8486633
			c-2.6111908,4.6318054-5.0674896,9.3507996-7.5880127,14.0336304c0,0,0.0214844-0.0103149,0.0214539-0.0101624
			c-0.3313751,0.3398438-0.6626892,0.6794739-0.9940338,1.0191345c-0.6956635,1.7223206-1.3913269,3.4446716-2.0870819,5.1669006
			c-3.2256775,1.6963501-3.1987,5.566925-5.3672638,8.0704041c-1.5223694,1.7574768-2.1646271,2.3230591-4.2549896,0.8745117
			c-14.8958511-10.3222656-29.8429642-20.5726013-44.8864441-30.6782837
			c-2.4632492-1.6547241-2.0290298-2.2388306,0.0618515-3.6289978
			c14.8143082-9.8496704,29.6407776-19.6850281,44.2812576-29.7885132c3.0316772-2.0921631,4.2631226-1.5210114,5.6280975,1.4341431
			c1.0201111,2.2085571,2.3980713,4.2519836,3.6166687,6.3689575c1.0026093,1.9647827,2.0052338,3.9295654,3.0077362,5.8941956
			C142.1086731,268.789978,142.4399414,269.1415405,142.7711945,269.493103z"/>
		<path class="st2" d="M429.2288208,303.5018311c-0.3178711-0.3212585-0.6357422-0.6424866-0.9542542-0.963623
			c-1.0639343-4.6815491-4.2025452-8.3353271-6.4686279-12.3772583c-1.4653625-2.6138-1.4960022-4.4508667-0.1442261-6.8486938
			c2.6112061-4.6317749,5.0675049-9.350769,7.5880127-14.0335999c0,0-0.0214844,0.0103149-0.0214539,0.0101318
			c0.3313599-0.3398132,0.6626892-0.6794434,0.9940186-1.019104c0.6956787-1.7223206,1.3913269-3.4446716,2.0870972-5.1669006
			c3.2256775-1.6963501,3.1987-5.5669556,5.3672485-8.0704041c1.5223999-1.7574768,2.1646423-2.3230591,4.2550049-0.874527
			c14.8958435,10.3222809,29.8429565,20.5726166,44.8864441,30.678299c2.4632568,1.6547241,2.0290222,2.2388-0.0618591,3.6289673
			c-14.8143005,9.8496704-29.6407776,19.6850586-44.28125,29.7885437c-3.0316772,2.0921631-4.2631226,1.5209961-5.6281128-1.4341736
			c-1.0200806-2.2085266-2.3980713-4.2519836-3.6166382-6.368927c-1.0026245-1.9647827-2.005249-3.9295654-3.0077515-5.8941956
			C429.8913269,304.2049255,429.5600586,303.8533936,429.2288208,303.5018311z"/>
		<path class="st2" d="M269.9606323,429.339447c0.3218384-0.3172607,0.6436462-0.6345215,0.9653931-0.9524536
			c4.6903381-1.0619507,8.3509521-4.1947021,12.4004211-6.456543c2.6186829-1.4626465,4.459198-1.4932251,6.8614807-0.1439819
			c4.6404724,2.6063232,9.3682861,5.0580444,14.0598755,7.5738525c0,0-0.0103455-0.0214539-0.0101624-0.0213928
			c0.3404541,0.3307495,0.6807251,0.661438,1.0210266,0.992157c1.7255554,0.6943665,3.4511108,1.3887329,5.1765747,2.0831909
			c1.6994934,3.2196655,5.5773315,3.1927185,8.0854797,5.3572388c1.7607727,1.5195313,2.3273926,2.1605835,0.8761597,4.2470703
			c-10.3415833,14.868042-20.611084,29.7872314-30.7356567,44.8026428c-1.6578369,2.4586487-2.2430115,2.025238-3.6357727-0.0617371
			c-9.868103-14.7866516-19.7218628-29.5854492-29.8442383-44.1986084c-2.0960846-3.026001-1.5238647-4.2551575,1.4368286-5.6175842
			c2.212677-1.0181885,4.2599182-2.3935852,6.3808594-3.6099243c1.9684448-1.0007324,3.9368896-2.0014648,5.9052124-3.0021057
			C269.2561951,430.0007324,269.6083984,429.6700745,269.9606323,429.339447z"/>
	</g>
	<g id="tree" class="st1">
		<path class="st2" d="M269.7457581,142.639679c4.6916199,2.5158081,9.4194336,4.9675293,14.0598755,7.5738373
			c2.4022827,1.3492584,4.2427979,1.3186798,6.8614807-0.1439667c4.0494995-2.2618408,7.7101135-5.3945923,12.4004211-6.456543
			c-1.0180664,4.0462646-4.7087097,5.8654938-7.2780151,8.6116638c-0.6656494,0.7114868-1.6915283,1.0732574-2.4529724,1.7127686
			c-6.8432312,5.7473297-6.8754883,5.7941284-13.4402771-0.6713562
			C276.4068298,149.8294373,271.3205872,147.8939056,269.7457581,142.639679z"/>
		<path class="st2" d="M189.1503754,315.8254089c3.4577789-9.0728455,9.0715485-17.0216064,13.4373779-25.6239929
			c1.4178314-2.7936707,1.4421082-4.7997131-0.1236267-7.7345886c-4.4579926-8.3562012-9.8014374-16.2585754-13.2823181-25.1285095
			c4.3482361,0.8377075,5.5184021,5.1309814,8.0782318,7.7978516c5.6512146,5.8876038,10.5788574,12.4637451,15.9174042,18.6593323
			c1.5490875,1.79776,1.3048248,3.5178528,0.0749664,4.9904785c-7.482666,8.9597473-15.0707397,17.8317261-22.6642303,26.6982422
			C190.3293152,315.7864685,189.6393738,315.7200012,189.1503754,315.8254089z"/>
		<path class="st2" d="M142.7502747,303.7162781c2.5205231-4.6828308,4.9768219-9.401825,7.5880127-14.0336304
			c1.3517761-2.3977966,1.3211365-4.2348633-0.1442413-6.8486633c-2.2660675-4.0419312-5.4046936-7.6957092-6.4686127-12.3772583
			c4.053833,1.0161438,5.8764496,4.6999207,8.6277618,7.2644043c0.7128296,0.6644287,1.0752716,1.688385,1.7159882,2.4483948
			c5.7580719,6.8304749,5.8049622,6.8626709-0.6726227,13.4151917
			C149.953476,297.0676575,148.014328,302.1444092,142.7502747,303.7162781z"/>
		<path class="st2" d="M382.8496094,257.1695251c-3.4577637,9.0728149-9.0715332,17.0216064-13.4373779,25.6239929
			c-1.4178162,2.7936401-1.4420776,4.7996826,0.1236267,7.7345886c4.4580078,8.3562012,9.8014526,16.2585754,13.2823486,25.1285095
			c-4.3482666-0.837738-5.5184021-5.1309814-8.0782471-7.7978821c-5.6512146-5.8875732-10.5788574-12.4637146-15.9174194-18.6593323
			c-1.5490723-1.79776-1.3048096-3.5178223-0.0749512-4.9904785c7.482666-8.9597168,15.0707397-17.8316956,22.6642456-26.6982117
			C381.6706848,257.2084656,382.3606262,257.2749329,382.8496094,257.1695251z"/>
		<path class="st2" d="M429.2497253,269.278656c-2.5205078,4.6828308-4.9768066,9.401825-7.5880127,14.0335999
			c-1.3517761,2.3978271-1.3211365,4.2348938,0.1442261,6.8486938c2.2660828,4.0419312,5.4046936,7.6957092,6.4686279,12.3772583
			c-4.053833-1.0161438-5.8764648-4.6999207-8.6277771-7.2644043c-0.7127991-0.6644287-1.0752563-1.688385-1.7159729-2.4484253
			c-5.7580566-6.8304443-5.8049622-6.8626404,0.6726379-13.4151917
			C422.0465088,275.9272766,423.9856567,270.8505249,429.2497253,269.278656z"/>
		<path class="st2" d="M304.2478027,429.360321c-4.6915894-2.5158081-9.4194031-4.9675293-14.0598755-7.5738525
			c-2.4022827-1.3492432-4.2427979-1.3186646-6.8614807,0.1439819c-4.049469,2.2618408-7.710083,5.3945923-12.4004211,6.456543
			c1.0180664-4.0462646,4.7087402-5.8654785,7.2780151-8.6116638c0.6656494-0.7114868,1.6915283-1.0732727,2.4529724-1.7127686
			c6.8432312-5.747345,6.8755188-5.7941284,13.4403076,0.6713562
			C297.586731,422.1705627,302.6729736,424.1060791,304.2478027,429.360321z"/>
	</g>
</g>
<linearGradient id="bgr2_1_" gradientUnits="userSpaceOnUse" x1="193.5" y1="286" x2="378.5" y2="286">
	<stop  offset="0" style="stop-color:#F0E68C"/>
	<stop  offset="0.0541163" style="stop-color:#F0E588"/>
	<stop  offset="0.1102127" style="stop-color:#F1E27B"/>
	<stop  offset="0.1672154" style="stop-color:#F3DC67"/>
	<stop  offset="0.2248538" style="stop-color:#F6D54A"/>
	<stop  offset="0.2823995" style="stop-color:#F9CB25"/>
	<stop  offset="0.33" style="stop-color:#FCC200"/>
	<stop  offset="0.3776005" style="stop-color:#F9CB25"/>
	<stop  offset="0.4351463" style="stop-color:#F6D54A"/>
	<stop  offset="0.4927846" style="stop-color:#F3DC67"/>
	<stop  offset="0.5497873" style="stop-color:#F1E27B"/>
	<stop  offset="0.6058837" style="stop-color:#F0E588"/>
	<stop  offset="0.66" style="stop-color:#F0E68C"/>
	<stop  offset="0.7157562" style="stop-color:#F0E588"/>
	<stop  offset="0.7735525" style="stop-color:#F1E27B"/>
	<stop  offset="0.8322825" style="stop-color:#F3DC67"/>
	<stop  offset="0.8916675" style="stop-color:#F6D54A"/>
	<stop  offset="0.9509571" style="stop-color:#F9CB25"/>
	<stop  offset="1" style="stop-color:#FCC200"/>
</linearGradient>
<ellipse id="bgr2" class="st5" cx="286" cy="286" rx="90" ry="113"/>
<path id="skidel" class="st6" d="M243.1795044,207.9593048c0.5165863,0.2311859,0.8771515,0.7517242,0.8771515,1.356308
	c0,0.8195343-0.6615448,1.4840851-1.477417,1.4840851c-0.8156281,0-1.4771729-0.664566-1.4771729-1.4840851
	c0-0.604538,0.3606415-1.1251221,0.8771515-1.356308v-9.6342926h11.3214874l-3.02388,3.0375977l3.0237274,3.0374451h-10.1208191
	v3.5592499H243.1795044z M228.5308838,328.8580933c3.2617645,7.632782,7.8923492,14.0910034,13.9856567,19.7714233
	c10.2310944,9.5380554,24.5922241,16.9312134,43.50177,24.0454712c18.9134827-7.1142578,33.2745972-14.5074158,43.50177-24.0454712
	c6.0933228-5.6804199,10.7278137-12.1386414,13.989563-19.7714233H228.5308838z M320.2432556,333.5132141l-0.7235107,1.9288025
	c-1.2045593,2.8284302-2.546051,5.3897095-3.9814148,7.7309875c-3.5863342,5.8532715-8.3811951,11.7183228-13.9269714,15.8234558
	c-5.5301208,4.089386-12.3195801,5.8375244-19.1676941,5.0400696c-6.2184143-0.7267456-12.0418701-3.3312378-16.8484497-7.2713928
	c-2.2761841-1.86203-4.2786255-4.0304871-6.2067261-6.242157c-3.0153809-3.4608765-6.026825-6.9217529-9.1751556-10.0840759
	c-0.0039063,0-0.0078278-0.0039368-0.0117493-0.0078735c-0.2346344-0.1610413-0.406723-0.3574829-0.5123291-0.5931702
	c-0.786087-1.771698,2.6125488-5.0165405,7.5912018-7.2399597c4.974762-2.2273865,9.6483765-2.5927124,10.4344788-0.8210449
	c0.007843,0.0157166,0.0156555,0.0314331,0.0195618,0.0510559h0.0039063
	c1.4588013,3.5708923,3.0388489,7.1181946,5.045166,10.4180298c0.7470093,1.2295532,1.5526733,2.4198608,2.4248047,3.5551453
	c3.273468,4.2622986,7.9040833,6.5682373,13.2816772,6.9296265c9.1829529,0.6167603,20.8298645-5.1068726,26.4108582-16.664093
	c0.4732056-0.9781494,0.3089294-1.8148804,0.4966431-2.8283997l4.8457031,0.2710571V333.5132141z M227.5551453,237.1980591
	h30.3319702v-0.6867828c0-0.6226196,0.5026245-1.1274109,1.1222839-1.1274109h0.6836548l-0.0001221-3.9034576H225.749176
	l0.0001221,3.9034424h0.6834412c0.6198883,0,1.122406,0.5048065,1.122406,1.1274109v0.6867828V237.1980591z
	 M228.3744354,237.1999207v91.4796448h28.6909332v-91.4796448H228.3744354z M241.0029907,256.9006348
	c0-1.4142151,0.6414032-2.6791382,1.6426239-3.5158844c1.0050964,0.8367462,1.6464996,2.1016693,1.6464996,3.5158844v14.5310059
	h-3.2891235V256.9006348z M237.5417633,271.4316406h-3.2891235v-14.5310059c0-1.4142151,0.6414185-2.6791382,1.6426239-3.5158844
	c1.005127,0.8367462,1.6464996,2.1016693,1.6464996,3.5158844V271.4316406z M248.8405762,328.5067139h-10.9389801v-22.1087646
	c0.003891-3.311615,2.1666718-6.8432007,5.4714508-7.6996155c3.2969513,0.8642578,5.4714508,4.3644409,5.4714508,7.7035522
	L248.8405762,328.5067139z M251.0424652,271.4316406h-3.2891235v-14.5310059c0-1.4142151,0.6413879-2.6791382,1.6425934-3.5158844
	c1.005127,0.8367462,1.6465302,2.1016693,1.6465302,3.5158844V271.4316406z M243.5372925,210.6403046h-1.6308594
	c-1.2867279,2.9816284-2.7572327,5.8728943-4.372467,8.5873718h10.3718872
	C246.2945251,216.5131989,244.8240051,213.621933,243.5372925,210.6403046z M252.0827637,225.3991394
	c-1.474411-1.9091797-2.8745575-3.9794312-4.1769104-6.171463h-10.3718872
	c-1.3023682,2.1920319-2.6985931,4.2622833-4.1730347,6.171463c-1.7638245,2.2941437-3.637207,4.3447571-5.5809479,6.0810852
	h29.8837433C255.7200012,229.7438965,253.8466187,227.6932831,252.0827637,225.3991394z M314.112854,265.784729h30.3319702
	v-0.6867676c0-0.6225891,0.5026245-1.1272583,1.1222839-1.1272583h0.6837158l-0.0001221-3.903595h-33.9437256l0.0000916,3.903595
	h0.6834106c0.6199036,0,1.1224365,0.5046692,1.1224365,1.1272583v0.6867676H314.112854z M330.0931091,239.2250977
	c3.5743713,8.2951202,8.5634766,15.8717346,14.1276245,20.8426819h-29.8841553
	c5.5641174-4.970932,10.5533752-12.5475616,14.127594-20.8426819h1.62854H330.0931091z M314.9321289,265.7865906v62.8929749
	h28.6909485v-62.8929749H314.9321289z M321.7255249,271.4512634h3.289093v13.658905h-3.289093V271.4512634z
	 M335.3513489,328.5067139H324.412323v-22.1087646c0.0039063-3.311615,2.166687-6.8432007,5.4714966-7.6996155
	c3.2969666,0.8642578,5.4714661,4.3644409,5.4714661,7.7035522L335.3513489,328.5067139z M336.7475586,285.1101685h-3.289093
	v-13.658905h3.289093V285.1101685z M329.7372131,236.5459595c0.5166016,0.2312012,0.8771362,0.7516174,0.8771362,1.356308
	c0,0.8195343-0.6615295,1.4841003-1.4773865,1.4841003c-0.8156128,0-1.4772034-0.664566-1.4772034-1.4841003
	c0-0.60466,0.3606567-1.1251221,0.8771667-1.356308v-9.6342926h11.3215027l-3.0238953,3.0375671l3.0237122,3.0374298h-10.1207886
	v3.5592804L329.7372131,236.5459595z M258.7451782,326.9924622h3.487793v-7.2297363
	c-0.3919067-0.1333313-0.7019653-0.444458-0.8344727-0.8382263h-2.6533203v8.0680542V326.9924622z M280.6705017,307.2190552
	c0.3912048,0.1334534,0.7005615,0.444458,0.8334656,0.8372192h2.235321v-9.1475525h-2.2350159
	c-0.1325989,0.3933411-0.4425049,0.7044678-0.8337708,0.8378906v7.4725342V307.2190552z M281.5042725,308.9164429
	c-0.1325989,0.3933105-0.4425049,0.7044373-0.8337708,0.8378906v7.4725342
	c0.3912048,0.1334229,0.7005615,0.444458,0.8334656,0.8372192h2.235321v-9.147583h-2.2350159V308.9164429z M279.8142395,309.7546692
	c-0.3919067-0.1333618-0.7019958-0.444458-0.8344727-0.8382263h-1.870636
	c-0.1326599,0.3933105-0.4425049,0.7044373-0.8338318,0.8378906v7.4725342
	c0.3912048,0.1334534,0.7007141,0.444458,0.8335876,0.8373413h1.8712158c0.132843-0.393219,0.4425964-0.7043457,0.834137-0.8375549
	v-7.4717407V309.7546692z M278.9801025,308.0562744c0.132843-0.393219,0.4425964-0.7043762,0.834137-0.837616v-7.4717407
	c-0.3919067-0.1331177-0.7017517-0.4446106-0.8344727-0.8382568h-1.870636
	c-0.1326599,0.393219-0.4425049,0.7043457-0.8338318,0.8378296v7.4725342
	c0.3912048,0.1334229,0.7006226,0.444458,0.8334656,0.8372192h1.8713379V308.0562744z M275.4190674,309.7546692
	c-0.3919067-0.1333618-0.7019653-0.444458-0.8344727-0.8382263h-1.8707275
	c-0.1326599,0.3933105-0.4425049,0.7044373-0.8338318,0.8378906v7.4725342
	c0.3912048,0.1334534,0.7007141,0.444458,0.8335876,0.8373413h1.8712158c0.132843-0.3933105,0.4425964-0.7044373,0.834259-0.837677
	v-7.4717407L275.4190674,309.7546692z M274.5849304,308.0562744c0.132843-0.393219,0.4425659-0.7043762,0.834137-0.837616
	v-7.4717407c-0.3919067-0.1332397-0.7017517-0.4446106-0.8344727-0.8381348h-1.8707275
	c-0.1326599,0.393219-0.4425049,0.7043457-0.8338318,0.8378296v7.4725342
	c0.3912048,0.1334229,0.7006226,0.444458,0.8334656,0.8372192h1.8714905L274.5849304,308.0562744z M271.0238037,309.7546692
	c-0.3919067-0.1333618-0.7019958-0.444458-0.8345032-0.8382263h-1.8707275
	c-0.1326294,0.3933105-0.4424744,0.7044373-0.8338013,0.8378906v7.4725342
	c0.3912048,0.1334534,0.7007141,0.444458,0.8335876,0.8373413h1.8711853c0.132843-0.3933105,0.442627-0.7044373,0.834259-0.837677
	v-7.4717407V309.7546692z M270.1896667,308.0562744c0.132843-0.393219,0.4425659-0.7043762,0.834137-0.837616v-7.4717407
	c-0.3919067-0.1332397-0.7017517-0.4446106-0.8345032-0.8381348h-1.8707275
	c-0.1326294,0.393219-0.4424744,0.7043457-0.8338013,0.8378296v7.4725342
	c0.3912048,0.1334229,0.700592,0.444458,0.8334656,0.8372192h1.87146L270.1896667,308.0562744z M266.6285095,309.7546692
	c-0.3918762-0.1333618-0.7019653-0.444458-0.8344727-0.8382263h-1.8708496
	c-0.1326294,0.3933105-0.4425049,0.7044373-0.8338318,0.8378906v7.4725342
	c0.3912354,0.1334229,0.7006226,0.444458,0.8334656,0.8372192h1.8714905c0.132843-0.3933105,0.4425659-0.7044678,0.8342285-0.837677
	v-7.4717407H266.6285095z M265.7943726,308.0562744c0.132843-0.393219,0.4425659-0.7043762,0.834137-0.837616v-7.4717407
	c-0.3918762-0.1332397-0.7017517-0.4446106-0.8344727-0.8381348h-1.8708496
	c-0.1326294,0.3933411-0.4425049,0.7044678-0.8338318,0.8378906v7.4725342
	c0.3912354,0.1334229,0.7006226,0.444458,0.8334656,0.8372192h1.8716125L265.7943726,308.0562744z M262.2331238,309.7546692
	c-0.3919067-0.1333618-0.7019653-0.444458-0.8344727-0.8382263h-2.6533203v9.1475525h2.653656
	c0.132843-0.393219,0.4425659-0.7043457,0.834137-0.8375549v-7.4717407V309.7546692z M261.3989868,308.0562744
	c0.132843-0.393219,0.4425659-0.7043762,0.834137-0.837616v-7.4717407
	c-0.3919067-0.1331177-0.7017517-0.4446106-0.8344727-0.8382568h-2.6533203v9.1475525h2.653656V308.0562744z
	 M263.9231567,318.9240417c-0.1326294,0.3933411-0.4424744,0.7044373-0.8338013,0.8379211v7.2301636h3.5391541v-7.2301636
	c-0.3918762-0.1331787-0.7017517-0.4445801-0.8344727-0.8381042h-1.8708801V318.9240417z M268.3187256,318.9240417
	c-0.1326294,0.393219-0.4425049,0.7043152-0.8338318,0.8377991v7.2305603h3.5390625v-7.2301636
	c-0.3918762-0.1332092-0.7017517-0.4445801-0.8345032-0.8381042h-1.8707275V318.9240417z M272.7138672,318.9240417
	c-0.1326294,0.393219-0.4424744,0.7043152-0.8338013,0.8377991v7.2305603h3.539032v-7.2301636
	c-0.3919067-0.1332092-0.7017517-0.4445801-0.8344727-0.8381042h-1.8707275L272.7138672,318.9240417z M277.1090393,318.9240417
	c-0.1326294,0.393219-0.4425049,0.7043152-0.8338318,0.8377991v7.2305603h3.5389404v-7.2297668
	c-0.3918762-0.1331177-0.7017517-0.444519-0.8344421-0.8382263h-1.8706665V318.9240417z M281.5041809,318.9240417
	c-0.1325989,0.3933411-0.4424744,0.7044373-0.8337708,0.8379211v7.2301636h3.0687866v-8.0680847H281.5041809z
	 M263.0893555,297.2112427c0.3912354,0.1334229,0.7006226,0.444458,0.8334656,0.8371887h1.8714905
	c0.132843-0.3933411,0.4425659-0.7044678,0.8342285-0.8377075v-7.5762329l-0.0360718-0.0129395
	c-0.9333496,0.7995911-1.8353577,1.6385193-2.7027588,2.5134277c0.066803,0.1595154,0.1039734,0.3345947,0.1039734,0.5184631
	c0,0.588562-0.3786011,1.0887451-0.9042664,1.2679749v3.2897644L263.0893555,297.2112427z M261.3989868,298.0484314
	c0.132843-0.393219,0.4425659-0.7043457,0.834137-0.8375854v-3.2890625l-0.0177002-0.0062561
	c-1.1663208,1.3093262-2.2601929,2.6891174-3.2737732,4.1330261h2.4573669L261.3989868,298.0484314z M267.4848633,297.2110901
	c0.3912354,0.1334229,0.7007446,0.444458,0.8335876,0.8373413h1.8712158c0.132843-0.3933411,0.442627-0.7044678,0.834259-0.8377075
	v-10.5272217c-0.1242676-0.0423279-0.2402039-0.1023865-0.3449707-0.1774597
	c-0.7849121,0.5305481-1.5535889,1.0863342-2.3041077,1.6658325c0.0092773,0.0635071,0.0142822,0.1281433,0.0142822,0.1942444
	c0,0.588562-0.3786011,1.0887146-0.9042664,1.2680054v7.5770264V297.2110901z M271.8800354,297.2110901
	c0.3912048,0.1334229,0.7007141,0.444458,0.8335876,0.8373413h1.8711853c0.132843-0.3933411,0.442627-0.7044678,0.834259-0.8377075
	v-13.0374451c-0.1575928-0.0536194-0.3017273-0.1360779-0.4265442-0.2410583
	c-0.7548828,0.3943787-1.4983826,0.8106995-2.229126,1.2476807c0.0134277,0.0765076,0.0209045,0.1549988,0.0209045,0.2353516
	c0,0.5885925-0.3786011,1.0887451-0.9042664,1.2680054v10.5279846V297.2110901z M276.275177,297.2110901
	c0.3912354,0.1334229,0.7007141,0.444458,0.8335876,0.8373413h1.8712158c0.132843-0.393219,0.442627-0.7043457,0.834137-0.8375854
	v-14.5561523c-0.3085938-0.105011-0.5664978-0.3202515-0.7268982-0.5994263
	c-0.6429138,0.2554321-1.2792969,0.5262146-1.9084473,0.8114929l0.0007935,0.0382996
	c0,0.588562-0.3786011,1.0887451-0.9042664,1.2680054v13.038208L276.275177,297.2110901z M280.6703491,297.2112122
	c0.3912048,0.1334229,0.7005615,0.444458,0.8334656,0.8371887h2.235321v-17.5412903
	c-0.7345886,0.1985779-1.4631042,0.4163818-2.18396,0.6528931c0.0125122,0.0737305,0.0193787,0.1491089,0.0193787,0.2264404
	c0,0.5885925-0.3785706,1.0887146-0.9042053,1.2680054v14.5569153V297.2112122z M263.089325,291.3862305
	c0.0815125,0.027771,0.1592712,0.0632324,0.2328491,0.1056519c0.8360596-0.8409424,1.7035217-1.6490479,2.6001892-2.4223633
	c-0.1257629-0.2043152-0.1982117-0.445343-0.1982117-0.7032776c0-0.5888062,0.3782349-1.088623,0.9043579-1.2676697v-5.3308105
	c-1.2381287,1.0624084-2.4188843,2.2038574-3.5391541,3.4034424v6.2150879L263.089325,291.3862305z M261.5438843,293.383606
	c-0.1361084-0.2099915-0.2151184-0.4607849-0.2151184-0.7301331c0-0.5887756,0.3782043-1.0885925,0.9043274-1.2676086v-5.2730408
	c-1.2436523,1.4030151-2.4077148,2.8748779-3.487793,4.3860168v6.3557129
	c0.8786011-1.2030334,1.8125305-2.3612366,2.798584-3.4707947V293.383606z M267.4846497,287.0990295
	c0.1854553,0.063385,0.3527527,0.1662292,0.4914551,0.2992249c0.7180786-0.5509644,1.4525757-1.080658,2.2019348-1.5880737
	c-0.0382385-0.1247559-0.0586853-0.2575073-0.0586853-0.3948364c0-0.5888062,0.3782043-1.0885925,0.9043274-1.2676086v-5.6391602
	c-1.223999,0.7710876-2.4044189,1.6243286-3.539032,2.5447998v6.0457458V287.0990295z M271.8797913,284.1480408
	c0.1763306,0.0602417,0.3360596,0.1561584,0.4705811,0.2797546c0.7198792-0.4299622,1.4523315-0.8403015,2.1959229-1.2297668
	c-0.0208435-0.0942383-0.0317993-0.1923828-0.0317993-0.2929993c0-0.5887756,0.3782654-1.088562,0.9043274-1.2676086v-5.4427185
	c-1.21521,0.5172424-2.3951416,1.118866-3.539032,1.7922668v6.1612244V284.1480408z M276.2749634,281.6377258
	c0.239624,0.0817566,0.4485474,0.230072,0.6051331,0.4230652c0.672699-0.3041077,1.3539429-0.5921021,2.0424194-0.8627319
	c0.0710144-0.5051575,0.4224854-0.9196777,0.8913574-1.0793152v-5.3743896
	c-1.2087708,0.2857361-2.3889465,0.6556091-3.5389099,1.1016541v5.7915955V281.6377258z M280.670105,280.1190491
	c0.1748352,0.0596313,0.3336487,0.154541,0.4674072,0.2767944c0.8569336-0.2846985,1.7244873-0.5440369,2.6013794-0.7761536
	v-5.4867554c-1.0415649,0.0789185-2.0647888,0.2231445-3.0687866,0.4247437V280.1190491L280.670105,280.1190491z
	 M257.0677795,328.6774902v-38.7088623c6.5543823-9.3730469,16.3431702-17.483551,28.3482971-17.5864868v56.2933655h-28.3482971
	V328.6774902z M313.2563477,326.9924622h-3.4877625v-7.2297363c0.3918762-0.1333313,0.7019348-0.444458,0.8344421-0.8382263
	h2.6533203v8.0680542V326.9924622z M291.3310242,307.2190552c-0.3912048,0.1334534-0.7006226,0.444458-0.8334961,0.8372192
	h-2.235321v-9.1475525h2.2349854c0.1326599,0.3933411,0.4425049,0.7044678,0.8338318,0.8378906v7.4725342V307.2190552z
	 M290.4972229,308.9164429c0.1326294,0.3933105,0.4424744,0.7044373,0.8338013,0.8378906v7.4725342
	c-0.3912048,0.1334229-0.7006226,0.444458-0.8334961,0.8372192h-2.235321v-9.147583h2.2349854L290.4972229,308.9164429z
	 M292.1872559,309.7546692c0.3918762-0.1333618,0.7019653-0.444458,0.8344727-0.8382263h1.870636
	c0.1326294,0.3933105,0.4424744,0.7044373,0.8338013,0.8378906v7.4725342
	c-0.3912048,0.1334534-0.7007141,0.444458-0.8335876,0.8373413h-1.8712158
	c-0.132843-0.393219-0.4425659-0.7043457-0.834137-0.8375549v-7.4717407L292.1872559,309.7546692z M293.0213928,308.0562744
	c-0.132843-0.393219-0.4425659-0.7043762-0.834137-0.837616v-7.4717407
	c0.3918762-0.1331177,0.7017517-0.4446106,0.8344727-0.8382568h1.870636
	c0.1326294,0.393219,0.4424744,0.7043457,0.8338013,0.8378296v7.4725342
	c-0.3912048,0.1334229-0.7006226,0.444458-0.8334656,0.8372192h-1.8713074V308.0562744z M296.582428,309.7546692
	c0.3918762-0.1333618,0.7019653-0.444458,0.8344727-0.8382263h1.8707275
	c0.1326294,0.3933105,0.4425049,0.7044373,0.8338318,0.8378906v7.4725342
	c-0.3912354,0.1334534-0.7007446,0.444458-0.8335876,0.8373413h-1.8712463
	c-0.132843-0.3933105-0.4425659-0.7044373-0.834259-0.837677v-7.4717407L296.582428,309.7546692z M297.4165649,308.0562744
	c-0.132843-0.393219-0.4425659-0.7043762-0.834137-0.837616v-7.4717407
	c0.3918762-0.1332397,0.7017517-0.4446106,0.8344727-0.8381348h1.8707275
	c0.1326294,0.393219,0.4425049,0.7043457,0.8338318,0.8378296v7.4725342
	c-0.3912354,0.1334229-0.7006226,0.444458-0.8334656,0.8372192h-1.8714905L297.4165649,308.0562744z M300.9777222,309.7546692
	c0.3918762-0.1333618,0.7019348-0.444458,0.8344421-0.8382263h1.8707581
	c0.1326294,0.3933105,0.4424744,0.7044373,0.8338013,0.8378906v7.4725342
	c-0.3912048,0.1334534-0.7006836,0.444458-0.8335876,0.8373413h-1.8712158
	c-0.132843-0.3933105-0.4425659-0.7044373-0.834198-0.837677v-7.4717407V309.7546692z M301.8118591,308.0562744
	c-0.1328735-0.393219-0.4425964-0.7043762-0.834137-0.837616v-7.4717407
	c0.3918762-0.1332397,0.7017517-0.4446106,0.8344421-0.8381348h1.8707581
	c0.1326294,0.393219,0.4424744,0.7043457,0.8338013,0.8378296v7.4725342
	c-0.3912048,0.1334229-0.7006226,0.444458-0.8334656,0.8372192h-1.8713989V308.0562744z M305.3730164,309.7546692
	c0.3918762-0.1333618,0.7019348-0.444458,0.8344421-0.8382263h1.8708496
	c0.1326294,0.3933105,0.4424744,0.7044373,0.8338013,0.8378906v7.4725342
	c-0.3912048,0.1334229-0.700592,0.444458-0.8334656,0.8372192h-1.87146c-0.132843-0.3933105-0.4425659-0.7044678-0.8342285-0.837677
	v-7.4717407H305.3730164z M306.2071533,308.0562744c-0.1329041-0.393219-0.442627-0.7043762-0.834137-0.837616v-7.4717407
	c0.3918762-0.1332397,0.7017517-0.4446106,0.8344421-0.8381348h1.8708496
	c0.1326294,0.3933411,0.4424744,0.7044678,0.8338013,0.8378906v7.4725342
	c-0.3912048,0.1334229-0.700592,0.444458-0.8334656,0.8372192h-1.8715515L306.2071533,308.0562744z M309.7684021,309.7546692
	c0.3918762-0.1333618,0.7019348-0.444458,0.8344421-0.8382263h2.6533203v9.1475525h-2.6536255
	c-0.1328735-0.393219-0.442627-0.7043457-0.834137-0.8375549v-7.4717407V309.7546692z M310.6025391,308.0562744
	c-0.1328735-0.393219-0.442627-0.7043762-0.834137-0.837616v-7.4717407
	c0.3918762-0.1331177,0.7017517-0.4446106,0.8344421-0.8382568h2.6533203v9.1475525h-2.6536255V308.0562744z
	 M308.0783081,318.9240417c0.1326599,0.3933411,0.4425049,0.7044373,0.8338318,0.8379211v7.2301636h-3.5391235v-7.2301636
	c0.3918762-0.1331787,0.7017517-0.4445801,0.8344421-0.8381042h1.8708496V318.9240417z M303.6827698,318.9240417
	c0.1326294,0.393219,0.4424744,0.7043152,0.8338013,0.8377991v7.2305603h-3.5390015v-7.2301636
	c0.3919067-0.1332092,0.7017517-0.4445801,0.8344727-0.8381042h1.8707275V318.9240417z M299.2875977,318.9240417
	c0.1326599,0.393219,0.4425049,0.7043152,0.8338318,0.8377991v7.2305603h-3.5390625v-7.2301636
	c0.3919067-0.1332092,0.7017517-0.4445801,0.8345032-0.8381042h1.8707275V318.9240417z M294.8924561,318.9240417
	c0.1326294,0.393219,0.4424744,0.7043152,0.8338013,0.8377991v7.2305603h-3.5389099v-7.2297668
	c0.3918762-0.1331177,0.7017517-0.444519,0.8344727-0.8382263h1.870636V318.9240417z M290.4972839,318.9240417
	c0.1326599,0.3933411,0.4425049,0.7044373,0.8338318,0.8379211v7.2301636h-3.0688477v-8.0680847H290.4972839
	L290.4972839,318.9240417z M308.9121094,297.2112427c-0.3912048,0.1334229-0.700592,0.444458-0.8334656,0.8371887h-1.87146
	c-0.132843-0.3933411-0.4425659-0.7044678-0.8342285-0.8377075v-7.5762329l0.0361023-0.0129395
	c0.9333191,0.7995911,1.8352966,1.6385193,2.7027283,2.5134277c-0.066803,0.1595154-0.1039124,0.3345947-0.1039124,0.5184631
	c0,0.588562,0.37854,1.0887451,0.9042053,1.2679749v3.2897644L308.9121094,297.2112427z M310.6025085,298.0484314
	c-0.1328735-0.393219-0.4425964-0.7043457-0.834137-0.8375854v-3.2890625l0.0177307-0.0062561
	c1.1662903,1.3093262,2.2601929,2.6891174,3.2737427,4.1330261h-2.4573364V298.0484314z M304.5166626,297.2110901
	c-0.3912354,0.1334229-0.7006836,0.444458-0.8335876,0.8373413h-1.8712158
	c-0.132843-0.3933411-0.4425659-0.7044678-0.8342285-0.8377075v-10.5272217
	c0.1242371-0.0423279,0.2402039-0.1023865,0.3449097-0.1774597c0.7849426,0.5305481,1.5536194,1.0863342,2.3041077,1.6658325
	c-0.0092773,0.0635071-0.0141907,0.1281433-0.0141907,0.1942444c0,0.588562,0.3785706,1.0887146,0.9042358,1.2680054v7.5770264
	L304.5166626,297.2110901z M300.1214905,297.2110901c-0.3912048,0.1334229-0.7007141,0.444458-0.8335876,0.8373413h-1.8712463
	c-0.132843-0.3933411-0.4425659-0.7044678-0.8342285-0.8377075v-13.0374451
	c0.1575928-0.0536194,0.3016968-0.1360779,0.4265442-0.2410583c0.7549133,0.3943787,1.4983826,0.8106995,2.229126,1.2476807
	c-0.0134277,0.0765076-0.020874,0.1549988-0.020874,0.2353516c0,0.5885925,0.3785706,1.0887451,0.9042358,1.2680054v10.5279846
	L300.1214905,297.2110901z M295.7263489,297.2110901c-0.3912354,0.1334229-0.7007446,0.444458-0.8335876,0.8373413h-1.8712158
	c-0.132843-0.393219-0.4425659-0.7043457-0.834137-0.8375854v-14.5561523
	c0.3085938-0.105011,0.5664978-0.3202515,0.7268982-0.5994263c0.6429138,0.2554321,1.2792969,0.5262146,1.9084167,0.8114929
	l-0.0007629,0.0382996c0,0.588562,0.3786011,1.0887451,0.9042358,1.2680054v13.038208L295.7263489,297.2110901z
	 M291.3311768,297.2112122c-0.3912048,0.1334229-0.7006226,0.444458-0.8334961,0.8371887h-2.235321v-17.5412903
	c0.7345886,0.1985779,1.4631042,0.4163818,2.184021,0.6528931c-0.0125732,0.0737305-0.0194702,0.1491089-0.0194702,0.2264404
	c0,0.5885925,0.3786011,1.0887146,0.9042664,1.2680054v14.5569153V297.2112122z M308.9122009,291.3862305
	c-0.0815125,0.027771-0.1593018,0.0632324-0.2328796,0.1056519c-0.8360291-0.8409424-1.7034607-1.6490479-2.6001587-2.4223633
	c0.1257324-0.2043152,0.1982117-0.445343,0.1982117-0.7032776c0-0.5888062-0.3782349-1.088623-0.9043274-1.2676697v-5.3308105
	c1.2380981,1.0624084,2.4188538,2.2038574,3.5391235,3.4034424v6.2150879L308.9122009,291.3862305z M310.4576416,293.383606
	c0.1361084-0.2099915,0.2151489-0.4607849,0.2151489-0.7301331c0-0.5887756-0.3782349-1.0885925-0.9043274-1.2676086v-5.2730408
	c1.2436218,1.4030151,2.4076843,2.8748779,3.487793,4.3860168v6.3557129
	c-0.8786011-1.2030334-1.812561-2.3612366-2.798584-3.4707947L310.4576416,293.383606z M304.5168762,287.0990295
	c-0.1854248,0.063385-0.3527222,0.1662292-0.4914551,0.2992249c-0.7180786-0.5509644-1.4525757-1.080658-2.2019043-1.5880737
	c0.0382385-0.1247559,0.0586853-0.2575073,0.0586853-0.3948364c0-0.5888062-0.3782349-1.0885925-0.9043274-1.2676086v-5.6391602
	c1.223999,0.7710876,2.4043884,1.6243286,3.5390015,2.5447998v6.0457458V287.0990295z M300.1217346,284.1480408
	c-0.1763306,0.0602417-0.3360596,0.1561584-0.4705811,0.2797546c-0.7198792-0.4299622-1.4523315-0.8403015-2.1959229-1.2297668
	c0.020874-0.0942383,0.0318604-0.1923828,0.0318604-0.2929993c0-0.5887756-0.3782349-1.088562-0.9043579-1.2676086v-5.4427185
	c1.21521,0.5172424,2.3952026,1.118866,3.539032,1.7922668v6.1612244L300.1217346,284.1480408z M295.7265625,281.6377258
	c-0.239624,0.0817566-0.4485474,0.230072-0.6051331,0.4230652c-0.672699-0.3041077-1.3539124-0.5921021-2.0424805-0.8627319
	c-0.0709839-0.5051575-0.4224548-0.9196777-0.8913574-1.0793152v-5.3743896
	c1.2087708,0.2857361,2.3889465,0.6556091,3.5389404,1.1016541v5.7915955L295.7265625,281.6377258z M291.3314209,280.1190491
	c-0.1748657,0.0596313-0.3337097,0.154541-0.4674377,0.2767944c-0.8569031-0.2846985-1.7244873-0.5440369-2.6013794-0.7761536
	v-5.4867554c1.0415649,0.0789185,2.0647888,0.2231445,3.0688171,0.4247437V280.1190491L291.3314209,280.1190491z
	 M314.9337463,328.6774902v-38.7088623c-6.5543823-9.3730469-16.3431702-17.483551-28.3482971-17.5864868v56.2933655h28.3482971
	V328.6774902z"/>
<path id="title" class="st2" d="M50.7262459,244.9064026l-1.2861366,11.0170593l-7.3640671-0.8592072
	c-2.1409607-0.2503052-3.4910126-0.2883606-4.049675-0.1146545c-0.5581703,0.1736908-0.8845825,0.6616058-0.9782639,1.4642181
	c-0.1058769,0.9070435,0.1502762,1.5203247,0.7669983,1.8399048c0.6167221,0.3200989,1.9984894,0.6045532,4.1443291,0.8553162
	l19.6794701,2.2970886c2.0589905,0.2400513,3.4163666,0.2752075,4.0730972,0.1039429
	c0.6562424-0.1707764,1.0343704-0.6840515,1.1343918-1.5388794c0.0956345-0.8197021-0.1561279-1.3930054-0.7562637-1.7193909
	c-0.6001282-0.326416-2.0633774-0.6255188-4.3897476-0.8972778l-5.3250809-0.6216125l1.2856522-11.0170593l1.6510963,0.1927185
	c4.3853569,0.5118256,7.4596977,1.1846619,9.2215462,2.0180054c1.7623444,0.8333588,3.2099762,2.3902893,4.3429108,4.6712799
	s1.5178986,4.9742584,1.1553802,8.0793304c-0.3766708,3.2280579-1.2719879,5.8198242-2.6849823,7.7773438
	c-1.4129944,1.9570007-3.1933899,3.1553345-5.3402023,3.5944519c-2.1468201,0.4386292-5.2958069,0.4161987-9.4484329-0.0687866
	l-12.3783417-1.4447327c-3.0528717-0.3561707-5.3304482-0.7279663-6.8327293-1.1158447
	c-1.5017967-0.3873901-2.8991776-1.1827087-4.1911697-2.3858948c-1.2919922-1.2026978-2.2361031-2.7718201-2.8328209-4.7073669
	c-0.5962296-1.9350586-0.7548008-4.0975037-0.476202-6.4877777c0.3791065-3.2451172,1.3188267-5.8500824,2.8196468-7.8144226
	c1.5008202-1.964325,3.2270546-3.1689911,5.1772423-3.6134796c1.9501839-0.4444885,4.9025459-0.4356995,8.857563,0.0258636
	L50.7262459,244.9064026z M36.5831223,222.4307098l3.2485237-10.6335754l17.2506371,5.2153015
	c0.5601273-2.0140991-0.2327309-3.3861084-2.3790588-4.1155396l-7.9007721-2.6342468
	c-2.9191818-0.9650879-4.7268982-2.1419373-5.4231491-3.5300446l2.9943199-9.8021698
	c0.6986923,1.2607727,2.6044807,2.3571014,5.7173615,3.289505l7.0200882,2.0897369
	c4.2433739,1.2597809,5.925209,4.3819427,5.0455055,9.3654785c2.0560608-4.6244354,5.2289581-6.2628479,9.5186844-4.9157257
	l6.4858246,2.0365601c3.085556,0.9611816,5.4299774,1.1631775,7.0327759,0.6059875l-2.994812,9.8016663
	c-1.3734741,0.8294525-3.5300446,0.7948151-6.4702072-0.1034393l-7.9622498-2.432724
	c-1.0080261-0.3078766-1.9121246-0.2488403-2.7127914,0.1771088c-0.8001785,0.4259491-1.3578606,1.1236725-1.6720772,2.0921783
	l17.270153,5.3314209l-3.2490082,10.6335602L36.5831223,222.4307098z M101.0032043,176.8801575l-4.246788,8.244751
	l-17.262352-8.8917236l14.6203003,14.0211487l-4.4517136,8.6428833L51.7176857,179.35289l4.2467918-8.2447357l17.1223145,8.8190155
	l-14.2748566-14.3470764l4.2463036-8.2447357L101.0032043,176.8801575z M133.4440308,145.0575104l-4.7454376,6.0218201
	l-5.7739639-4.5492859l-11.0883026,14.0723724l5.7734756,4.5493011l-4.7288513,6.0013123l-12.7686768-10.0612335
	l1.4027481-1.7794189c-2.0062943-3.101181-5.0113449-6.7161255-9.0156479-10.8443451
	c-4.0038071-4.1277466-8.661911-8.2842712-13.9733276-12.4695892l-1.0143738-0.7991943l15.2306824-19.3286667l26.4892654,20.8724136
	l1.4022598-1.7794189L133.4440308,145.0575104z M112.3500977,145.4761505l-19.8668213-15.6541901l-2.0384979,2.5864258
	l0.2483444,0.1956482c6.4155655,5.0552673,12.4110336,10.8984985,17.9878769,17.5287476L112.3500977,145.4761505z
	 M108.4077682,99.9216919l13.8113403-12.3017349l5.6778412,6.3745728l-5.5285416,4.9240189l5.3797302,6.0403595l5.1743164-4.6088257
	l5.3972778,6.0598755l-5.1743011,4.6088181l6.2384491,7.0039902l6.0793915-5.414856l5.6778412,6.3750687l-14.3626862,12.7920914
	L108.4077682,99.9216919z M183.8610229,96.9298172l-9.4230652,5.9017868l-18.1249695-28.9385834l-2.74646,1.7203751
	l12.8247833,20.4757462c1.6876831,2.694252,2.5522614,4.8474121,2.5937347,6.4580078
	c0.0419617,1.6115799-0.5503693,3.0084686-1.7769775,4.1911697c-1.2266083,1.1831894-3.387085,2.7430496-6.4809418,4.6810379
	l-1.4725189,0.9221573l-3.9023285-6.2296753c1.1461029-0.71772,1.846756-1.3529816,2.1014404-1.9067612
	c0.2546844-0.552803-0.1356354-1.6559753-1.1705017-3.3080444l-16.6710052-26.6166153l21.5920868-13.5239601L183.8610229,96.9298172
	z M216.3467255,72.1936188c1.1612396,2.9596786,1.611084,5.2362823,1.3495636,6.8293152
	c-0.2615204,1.5935211-1.109024,2.8601456-2.5420227,3.7998657c-1.4334869,0.9397125-3.8584137,2.0799713-7.2757568,3.4212418
	l-11.9445801,4.6873779l-15.5922241-39.7326813l10.3500824-4.0618706l5.3416748,13.6122742l1.5944977-0.6255035
	c3.1880188-1.2514992,5.6739349-2.0097122,7.4562836-2.2756271c1.7828369-0.2649345,3.3309784,0.0848961,4.6439514,1.0504761
	c1.312973,0.9665565,2.5083618,2.8225746,3.5866394,5.5695229L216.3467255,72.1936188z M205.524826,75.0537643l-2.2521973-5.7393188
	c-0.6547852-1.6676865-1.2202759-2.6152115-1.6964722-2.8435516c-0.4762115-0.2283478-1.5091248-0.0590363-3.0977631,0.5079117
	l5.120636,13.04776c1.3076172-0.5132828,2.1292572-1.0285187,2.4634705-1.5466766
	C206.3972168,77.9617233,206.2176666,76.819519,205.524826,75.0537643z M253.3470917,49.3314972l-10.8882599,2.1097336
	l-1.4110413-7.2786789c-0.4098358-2.1160774-0.782608-3.4144135-1.116333-3.8940315
	c-0.3347168-0.4796181-0.8987427-0.6430702-1.6916046-0.4893761c-0.8967743,0.1736946-1.4042053,0.6035461-1.5217896,1.2880898
	c-0.1180878,0.6850281,0.0287781,2.0872879,0.4396057,4.2087326l3.7691193,19.4511223
	c0.3942413,2.0350876,0.7709045,3.3392792,1.1339111,3.9135513c0.3610535,0.5737839,0.9641113,0.7791977,1.8091888,0.6152573
	c0.8099213-0.1571045,1.2802734-0.5703735,1.4090881-1.2412491c0.1307526-0.6708832-0.0273285-2.1556015-0.4723053-4.4551315
	l-1.0207062-5.2635994l10.8901978-2.1097374l0.3161774,1.6320686c0.8392029,4.3346176,1.1280518,7.4679909,0.8684845,9.3996391
	c-0.2615204,1.9321289-1.3076019,3.7827835-3.1382599,5.553421c-1.8306427,1.7696609-4.2819214,2.9523621-7.3499146,3.5471268
	c-3.1909485,0.6181793-5.9320374,0.5493851-8.225235-0.2049255c-2.2931824-0.7538223-3.9740448-2.0882645-5.042572-4.0013733
	c-1.0680389-1.9131012-1.9999542-4.9215775-2.7952576-9.0258942l-2.3702698-12.2344093
	c-0.5845184-3.0177422-0.9197235-5.3011703-1.0050964-6.850296c-0.0853882-1.5486336,0.2498016-3.1211739,1.0050964-4.7166481
	c0.7552795-1.5954742,1.9648132-2.9704132,3.6290894-4.1248169c1.6637878-1.1543999,3.6769104-1.9604301,6.0393829-2.4180946
	c3.2075348-0.6216011,5.973999-0.5142593,8.3023224,0.321537c2.3263702,0.8357925,3.9969788,2.1160774,5.0098877,3.8403587
	c1.0148621,1.7237968,1.8989563,4.5405159,2.6581421,8.4496727L253.3470917,49.3314972z M270.223999,29.1016636
	l11.1166077-0.1800404l0.3454285,18.0181274c2.0882568-0.0863609,3.1499634-1.2632065,3.183136-3.5300484l0.0761108-8.3281822
	c0.0205078-3.0738487,0.5835571-5.1562614,1.6911316-6.2457695l10.2471313-0.166378
	c-0.9846191,1.0529156-1.4412842,3.203146-1.3710327,6.4516678l0.1717529,7.323082
	c0.1063538,4.424881-2.3468628,6.9859314-7.3596802,7.6816978c5.0332947,0.5337753,7.5684814,3.0484772,7.6065369,7.5450783
	l0.0575867,6.7975998c0.0341492,3.2319336,0.5630493,5.524147,1.5867004,6.8781052l-10.2481384,0.1658936
	c-1.2109985-1.0514526-1.8413696-3.1143494-1.8921204-6.1882019l-0.1346436-8.324276
	c-0.0166016-1.0538902-0.3513184-1.8960266-1.0021973-2.5268974c-0.651825-0.6303864-1.4871521-0.946064-2.5059204-0.9475288
	l0.2400818,18.072773l-11.1166077,0.1800385L270.223999,29.1016636z M333.4516296,76.463829l-9.149353-1.513504
	l3.1685181-19.1578903l-8.8614807,18.216217l-9.5914001-1.5862045l6.9644775-42.1102753l9.149353,1.5130177l-3.1421814,19.0017586
	l9.2771912-17.9869003l9.1502991,1.5130157L333.4516296,76.463829z M369.8918457,88.2093506l-8.7316589-3.1250763
	l6.5429077-18.2825775l-11.9753418,16.3382416l-9.1542053-3.2758408l14.3817139-40.1864395l8.732666,3.1245918
	l-6.4902344,18.1337624l12.3442078-16.0386658l8.7316589,3.1250801L369.8918457,88.2093506z M378.518158,36.1124802
	l4.2165527,1.5091133c-0.9036255,2.2136612-2.2092896,3.7891312-3.9159851,4.7268982
	c-1.7067261,0.937767-3.6437378,1.0187607-5.8100891,0.2434692c-2.1829224-0.7811508-3.6271362-2.0770454-4.331665-3.8867149
	c-0.7045593-1.810154-0.707489-3.8491402-0.0078125-6.1174469l4.2174988,1.5091133
	c-0.612793,2.337101-0.0839233,3.8042564,1.5867004,4.401947C376.160553,39.1024094,377.5081787,38.3071098,378.518158,36.1124802z
	 M421.2085571,119.0298157l-9.0576172-6.4482498l19.8053589-27.816391l-2.6405945-1.8794403l-14.0128479,19.6814194
	c-1.8442993,2.590332-3.5022278,4.2126389-4.974762,4.8674164c-1.4725037,0.6547852-2.9899292,0.6416092-4.5522156-0.039032
	c-1.5622864-0.6806335-3.8301086-2.0799713-6.8034363-4.1975098l-1.4159241-1.0080261l4.2633667-5.9881516
	c1.1017151,0.7845612,1.956543,1.1885529,2.5654602,1.2119751c0.6079407,0.0239029,1.478363-0.7587051,2.6093445-2.3468628
	l18.2147522-25.5841827l20.7548218,14.7769165L421.2085571,119.0298157z M461.5716248,98.012001l13.0643311,13.0926514
	l-6.0432739,6.0296249l-5.2294312-5.2406693l-5.7261658,5.7129669l4.8947449,4.9049835l-5.7446899,5.7320023l-4.8937683-4.9054718
	l-6.6404724,6.6253662l5.7505493,5.7632141l-6.0433044,6.0291443l-13.5844727-13.6152039L461.5716248,98.012001z
	 M487.8018188,158.2033539l-6.4463196-9.0268707l6.0335388-4.3082733c1.7545166-1.2529602,2.7801208-2.1312103,3.0777588-2.6352234
	c0.2966309-0.5030365,0.2107544-1.084137-0.258606-1.7413483c-0.5308533-0.7435913-1.131958-1.0265808-1.8033142-0.8489685
	c-0.6723633,0.177597-1.8872681,0.8943329-3.6456909,2.1497345l-16.1235657,11.5142517
	c-1.6871948,1.2046509-2.7167053,2.0902252-3.0875244,2.6581421c-0.3717651,0.5674438-0.307373,1.2017365,0.1922607,1.901886
	c0.4801025,0.6718597,1.0509644,0.9275208,1.7154846,0.76651c0.6635742-0.161499,1.9487305-0.9221497,3.8545227-2.283432
	l4.3638916-3.115799l6.4453125,9.0268707l-1.352478,0.9660645c-3.5929871,2.5659332-6.3223877,4.1316376-8.1881714,4.6976166
	c-1.8657532,0.565979-3.9833069,0.3844757-6.3545532-0.5445099c-2.3712769-0.9294739-4.4653931-2.6664429-6.2823792-5.2104187
	c-1.8882141-2.6449738-2.9655151-5.1665039-3.2329102-7.565567c-0.2673645-2.3990631,0.2468872-4.4824524,1.5427856-6.2496796
	c1.2958984-1.7672119,3.6447144-3.8652344,7.0464478-6.2945557l10.1417542-7.2425842
	c2.5010376-1.7862396,4.4390259-3.0401764,5.8120117-3.761795c1.3729858-0.7216339,2.9430847-1.0709686,4.7083435-1.0470581
	c1.7642822,0.023407,3.5178528,0.5523071,5.2597046,1.5857086s3.3119507,2.5288544,4.7102966,4.4878235
	c1.8979797,2.6586304,2.9508972,5.2196808,3.1587524,7.6831512c0.2068787,2.4634705-0.2624817,4.515152-1.4090881,6.1540527
	s-3.3402405,3.6154327-6.5809631,5.9295959L487.8018188,158.2033539z M522.9110107,185.4796143l-18.6968079,4.6371155
	l-18.9153748,15.5810089l-4.4410095-9.2664337c3.3041687-2.9455261,7.4914246-6.1984406,12.5608521-9.7597198
	c-2.561554,0.9182587-5.3124084,1.804306-8.2515869,2.6581421l-6.7234497,2.0648499l-4.668335-9.7416534l23.1973267-6.6473236
	l15.2687073-11.7884674l4.6351929,9.6699524c-0.9758301,0.6840515-2.5742188,1.8774872-4.7971802,3.5812683
	c-1.682312,1.3217621-3.254364,2.4947052-4.7142029,3.5193176l11.5264587-2.8947906L522.9110107,185.4796143z
	 M512.8717041,235.4218597c-4.1257629,1.1583099-7.074707,1.8804169-8.8458252,2.1678009s-3.5100403,0.1185608-5.2177429-0.5054779
	c-1.7086792-0.6250153-3.1870422-1.701355-4.4370728-3.2294922s-2.1995239-3.451004-2.8504028-5.7676086
	c-0.6166992-2.1985474-0.8108826-4.2736359-0.5835266-6.225769c0.227356-1.9521484,0.9104309-3.6622772,2.0482483-5.1313782
	c1.1387939-1.4686127,2.5254517-2.5420227,4.1589661-3.2197418c1.6345215-0.6772156,4.5658875-1.6096191,8.7931824-2.7962189
	l7.026886-1.9716644c4.1257935-1.1582947,7.0747681-1.8809052,8.8468628-2.1682739
	c1.7701416-0.287384,3.5100098-0.1190491,5.2177124,0.5059662c1.7077026,0.6240387,3.1860962,1.7003632,4.4360962,3.2290039
	c1.250061,1.5281372,2.2005005,3.4505157,2.8504028,5.7676086c0.6166992,2.1985321,0.8118896,4.2741241,0.5845337,6.225769
	c-0.2283325,1.9521332-0.9104614,3.6627655-2.0492554,5.1313782c-1.1387939,1.469101-2.5244751,2.542511-4.1589355,3.2197266
	c-1.6345215,0.6777191-4.5649414,1.6096344-8.7932129,2.7962341L512.8717041,235.4218597z M523.3706665,220.9547729
	c1.9106445-0.5362244,3.1030884-0.9851074,3.576355-1.3456726c0.4732666-0.3615417,0.6177368-0.8714142,0.432312-1.5310669
	c-0.1571045-0.5576782-0.4918213-0.9245911-1.0061035-1.0992584c-0.5151978-0.1751709-1.8286743,0.0341492-3.9423218,0.6274414
	l-19.177887,5.3821716c-2.3849182,0.6694183-3.8291321,1.1792908-4.3316956,1.5305786
	c-0.5044861,0.3508148-0.6557312,0.8816681-0.456665,1.5920563c0.203949,0.7269897,0.6557312,1.1022034,1.3554077,1.124649
	c0.6996765,0.022934,2.2580566-0.3054352,4.677124-0.9841309L523.3706665,220.9547729z M524.1444702,270.5296326
	c-0.3893433,1.6603394-1.1622314,2.9430847-2.3204956,3.8476563c-1.1593018,0.9046021-4.0116577,1.5740051-8.5609131,2.0082703
	c-3.3763733,0.3225098-6.0325623,0.1878357-7.969574-0.4035034c-1.9360657-0.5918579-3.4797974-1.7852783-4.6312866-3.5808105
	c-1.1514587-1.79599-1.8677368-4.1716309-2.1497498-7.1264343c-0.3210449-3.356842-0.0087585-6.0467224,0.9367981-8.0691223
	c0.9446106-2.0223846,2.2053833-3.4129333,3.7832947-4.1726227c1.5769348-0.7591858,4.3853455-1.3315125,8.4242859-1.717453
	l3.356842-0.3205566l1.0119019,10.5964966l-6.8980713,0.6582031c-1.8355408,0.1756287-2.9928589,0.3956909-3.4700317,0.6620789
	c-0.4772034,0.2664185-0.6801758,0.7752991-0.6079407,1.5271606c0.078064,0.8216553,0.4440002,1.3339539,1.0987549,1.5359497
	c0.6547852,0.2024841,2.3107605,0.1766357,4.9689026-0.0770874l2.9372559-0.2805481
	c1.6257324-0.1551514,2.7976685-0.452301,3.5148926-0.8914185c0.7162476-0.4391174,1.1583252-1.0285034,1.3261719-1.7677002
	c0.1678467-0.7396851,0.1697998-2.1424255,0.0087891-4.2087402l6.1633301-0.5884094
	c0.2400513,2.5176086,0.4849854,4.0643005,0.7337646,4.6410217c0.2488403,0.5757446,0.7094727,0.9641113,1.3817749,1.1646423
	c0.6723633,0.200531,1.6989136,0.2351685,3.0806885,0.1029358l2.3605347-0.2254028
	c1.4852295-0.1414795,2.4503174-0.3883667,2.8933105-0.7391968c0.4430542-0.3512878,0.6333008-0.8504333,0.5718384-1.4969177
	c-0.0702515-0.7347717-0.3678589-1.2134399-0.8919067-1.4368896c-0.5239868-0.223938-1.5993652-0.2576294-3.2250977-0.1024475
	l-3.4885864,0.3332214l-1.0119019-10.595993l3.6193237-0.345932c4.0565186-0.3869171,6.8864136,0.2776337,8.4887085,1.9950867
	c1.6013184,1.717453,2.5957031,4.5956421,2.9811401,8.6350708c0.4820557,5.0528259-0.1776123,8.574585-1.9799805,10.56427
	c-1.8023071,1.9892273-4.4604492,3.1519165-7.9724731,3.4871216c-2.3760986,0.2268982-4.1238403,0.0668335-5.243103-0.4786377
	C526.2463989,273.1165466,525.1729736,272.0723877,524.1444702,270.5296326z"/>
<g class="st7">
	<path class="st2" d="M146.2570801,408.8701477c-1.8048553-2.2763062-13.9728851-13.3312378-14.1920776-12.7750549
		c-0.2313385,0.5870361,11.1400757,11.6343079,13.4456329,14.6931458c0.9714966,1.2889099,1.9772797,2.5569458,2.8693237,3.8996887
		c1.6300507,2.4536743,3.0868835,5.0093689,4.2934723,7.7050171c0.820694,1.8334656,1.8736572,3.5812378,2.517807,5.4712524
		c0.966629,2.8361816,1.7301636,5.747406,2.4583588,8.657196c0.5800781,2.3179016,1.2716827,7.1323242,1.1789551,7.1862183
		c-0.7221985-0.5635681-1.4443359-1.1271973-2.1666107-1.6906128c-2.6746979-2.0865173-5.3608551-4.1586304-8.0172577-6.268158
		c-0.8074646-0.6412659-37.6081467-28.8064575-38.3063812-28.3786926c-0.1328812,0.7843933,4.9472656,4.9048767,7.023941,6.3990479
		c1.2776337,0.9192505,2.5340958,1.8684387,3.7862854,2.8222656c0.3366699,0.2564392,18.3705902,13.8196411,19.5365906,14.7144165
		c0.8408203,0.6452332,4.8428345,3.8502808,5.2049103,4.2075195c2.673233,2.6374207,5.7466125,4.77948,8.6712799,7.1066895
		c3.3122864,2.6356506,6.862381,4.9107971,10.4500427,7.1433411c2.1317749,1.3265381,4.1592712,2.8199768,6.2448425,4.2217407
		c1.3869171,0.9321594,2.7961121,1.8311157,4.1907501,2.7518921c1.7622375,1.1634827,3.5197906,2.3340759,5.2794342,3.5014954
		c0.1232605,0.0817871,4.6413727,2.7841187,5.5318604,3.368042c1.5205231,0.9970093,2.9822845,2.0837402,4.4663086,3.1362305
		c0.1608887,0.1140747,0.3057251,0.2507629,0.6100311,0.5030518c-0.4855804,0.3316956-17.7579651,8.502594-20.6732025,9.3939819
		c-0.5711365,0.1746216-4.167511,0.89505-4.259613,0.9062805c-3.5443878,0.4328918-28.9324799,1.611145-29.0491028,2.1285706
		c-0.1147461,0.5090637,28.0623169-0.185791,30.2478027-0.383606c3.6141663-0.3270874,22.2792053-8.3105164,24.3558807-9.6180115
		c1.0796814-0.6797791,1.9581909-0.833374,3.1463013,0.158844c1.4494934,1.2105408,3.2608643,1.9885559,4.9185944,2.9487
		c2.0346832,1.1784973,4.1192627,2.2788086,6.0952454,3.5484009c1.8938141,1.2168274,3.6342468,2.6711426,5.5175323,3.9060059
		c2.7846832,1.8258667,5.6404266,3.5431519,8.4574585,5.3200073c1.6532745,1.0428162,3.2855988,2.118866,4.9356995,3.1667786
		c1.9444275,1.2348022,3.9316711,2.4054565,5.8383026,3.6956482c2.059433,1.3936462,4.0109711,2.9471436,6.0755615,4.3326111
		c2.4340668,1.6333923,4.721405,3.4718018,7.2755585,4.9448547c1.7720642,1.0220337,3.3577881,2.3670959,5.230835,3.7146606
		c-3.7802277-0.2658081-13.3088837,1.9495239-13.3235931,2.0482788c-0.819397,0.2427673-1.634552,0.5010376-2.4588928,0.7255859
		c-3.421814,0.9320984-6.828537,1.9299622-10.2790985,2.7407837c-1.307373,0.3072205-2.7240143,0.289856-4.0806427,0.22052
		c-3.7372284-0.190918-7.4459686-0.6224976-11.0197906-1.8323059c-0.325531-0.110199-0.6681824-0.1688843-1.0007782-0.2591858
		c-1.2328949-0.3347168-4.3817596-1.8299255-4.9911041-2.096405c0.029068,0.3816833,4.0246887,3.3745422,6.3740997,3.9752502
		c1.8115692,0.4631653,3.6341858,0.88974,5.4653778,1.2670898c1.0450134,0.215332,6.7698364,0.7225952,7.6445923,0.7497559
		c2.5862122,0.0803223,5.0426025-0.7252197,7.5067139-1.3823242c2.693512-0.7182922,5.3573761-1.5472717,8.0474548-2.2791138
		c2.2163239-0.6029053,4.4534302-1.1290588,6.678833-1.6990051c0.5990143-0.1533813,4.4460602-0.5784912,8.087326,0.6712952
		c3.7776489,1.2966003,7.3450317,4.272644,7.4671326,4.2625732c1.0009766,0.7454834,5.0547791,3.5894775,5.4752502,3.8837891
		c3.085022,2.1590576,6.1429443,4.3569336,9.2048035,6.5490112c0.0648804,0.0464478-0.4041443,0.4904785-0.6360474,0.428833
		c-2.61203-0.6939087-5.2863464-0.3557129-7.930603-0.4935303c-1.8912354-0.0985718-3.7868958-0.1114502-5.6785583-0.2037964
		c-1.7700806-0.0864258-3.4943237-0.0761108-5.209671,0.5710449c-1.1227417,0.423584-2.3626709,0.6207886-3.5668182,0.7235107
		c-1.5923462,0.1358032-2.9569397,0.9281006-4.454361,1.2990112c-0.9529877,0.236084-1.7716827,1.0560913-2.8663025,0.7000122
		c-0.0345154-0.0112305-0.0887146-0.0200806-0.1111755-0.0020142c-1.8357544,1.4784546-4.1906128,1.1179199-6.2765656,1.7064209
		c-3.0834198,0.8699951-6.2682495,1.4247437-9.439621,1.9255981c-2.8456421,0.4494019-5.6320496,1.1126709-8.4268036,1.7774048
		c-0.9458618,0.2249146-1.9517975,0.2088013-2.9321594,0.2750854c-2.5214081,0.1704712-5.0088501-0.1803589-7.5021973-0.4821167
		c-0.7914276-0.0958252-1.3571777-0.4491577-1.9086304-0.9908447c-1.0471649-1.0286255-2.1893158-1.9607544-3.2344818-2.991272
		c-1.2595978-1.2420044-2.7606812-1.1882935-4.2720184-0.8178711c-1.1386719,0.2790527-2.2386932,0.7368164-3.332016,1.1746826
		c-1.436676,0.5753174-2.8598328,0.9642334-4.4372406,0.5646973c-0.9461823-0.2396851-1.944458-0.2706909-2.9177704-0.4065552
		c-2.7282257-0.3809814-4.4552612-2.1074219-5.8058929-4.3353271c-0.0511322-0.0843506-0.0888519-0.1768188-0.1404572-0.2608643
		c-1.4664154-2.387207-1.4851379-4.6810303-0.1700745-7.2564087c1.1006622-2.1554565,2.6965485-3.6726685,4.4900818-5.1319275
		c2.087677-1.6985779,4.2006073-3.4119568,5.4112854-5.8974609c1.416275-2.9074707,0.283432-5.0788269-2.3271332-6.546051
		c-1.8386536-1.0334167-3.8809814-1.0614624-6.0080566-0.946106c-3.3330078,0.1807556-6.1802368,1.5513611-8.9078217,3.1699829
		c-2.4278259,1.4407654-5.0313873,2.4405823-7.5849762,3.5629272c-1.5282288,0.6717224-3.2036743,0.9868469-4.914856,0.7032776
		c-1.7700653-0.2933044-6.7473602-3.0308228-7.6498718-2.803009c-1.1326141,0.2859497-2.2801208,0.5229492-3.4317322,0.7193298
		c-0.6175079,0.1052856-1.2566986,0.0924683-1.8867645,0.1132507c-1.5912933,0.0523987-2.254425-0.9683838-2.6463928-2.3031311
		c-0.3034515-1.0332642-0.5947876-2.071167-0.9412689-3.0901184c-0.1060181-0.3117676-0.3154144-0.6635437-0.5818024-0.8336792
		c-1.944809-1.2423096-3.9017639-2.4512634-6.3937531-2.0172729c-1.7910004,0.3118896-3.5875854,0.68927-5.3952484,0.787262
		c-3.511261,0.1903076-6.7722855-0.5875244-9.7763214-2.5930176c-3.7212219-2.4842834-5.3542862-6.129364-5.9159088-10.2929993
		c-0.2670822-1.980011,0.359375-3.9995117,1.4999542-5.7502136c1.3151169-2.0185547,3.1874924-3.4621887,5.0464554-4.9284058
		c0.9571915-0.7549744,1.9019775-1.5427551,2.749054-2.4159241c1.0547714-1.0872803,2.0427475-2.2463684,2.9855881-3.4332275
		c0.9038849-1.1378174,1.0502777-2.5566711,1.0455627-3.9324036c-0.0044556-1.3024292-0.9212036-2.1762695-1.9548187-2.7939148
		c-3.2991486-1.9714966-6.8040924-3.4478455-10.5031433-4.550415c-4.2488098-1.266449-8.6024857-2.0683289-12.8742523-3.209259
		c-3.1371689-0.8379211-6.1340027-2.1166687-8.9500885-3.7221069c-2.1438446-1.2221985-3.2134094-3.282135-3.4739075-5.7185364
		c-0.2089539-1.9541321-0.4354172-3.9152832-0.4708328-5.8766174c-0.0343781-1.9042664,0.6829376-3.6602478,1.5881119-5.3161621
		c1.2273483-2.2453003,2.523613-4.4537354,3.713089-6.7185364c0.4296417-0.8180542,0.8310013-1.7420959,0.8823624-2.6385803
		c0.0403595-0.7042847-0.308136-1.5856628-0.779335-2.1349792c-1.34198-1.5645142-2.8414917-2.9932861-4.2669067-4.4869995
		c-1.8635559-1.9528809-3.8701553-3.7952576-5.5312958-5.9083862c-1.859993-2.3660583-2.6520233-5.2422485-2.9069138-8.2423706
		c-0.0207748-0.2445374,0.0649261-0.5130005-0.0063324-0.7360229c-0.4813538-1.5063782,0.3625031-2.3396606,1.5199432-2.9771118
		c0.9906158-0.5455933,1.9967728-1.077179,3.0394974-1.510376c1.32621-0.5509644,2.1161728-1.8511658,1.9258652-3.420105
		c-0.2307053-1.9021912-1.1411743-3.5515137-1.9417877-5.241333c-0.232193-0.4901123-0.4865494-0.9697571-0.7335358-1.4527588
		c-1.1952133-2.3373718-0.8328629-4.4892273,1.9781876-6.0212402c2.3540878-1.2829895,4.8561172-1.5127869,7.4235153-1.2518311
		c2.2710648,0.230835,4.137413,1.4838257,5.9642334,2.7428284c0.7992096,0.5507813,1.716835,1.0488586,2.2811432,1.796875
		c1.2214661,1.6190491,3.0032349,2.5149231,4.497879,3.7672729c1.1867065,0.9943237,2.5765991,1.8052673,3.9863052,2.4610901
		c2.3736115,1.104187,6.2019424-0.2286072,5.7527924-3.9389038c-0.1060104-0.8757019-0.1199722-1.7637024-0.1528168-2.6469116
		c-0.1086502-2.9211426,1.2820969-5.1687012,3.283905-7.1040955c0.659523-0.6376343,1.4023895-1.5236511,2.1896286-1.6196594
		c1.3289719-0.1620789,2.7309647,0.1677551,4.0892258,0.375824c2.6352081,0.403656,4.9101257,1.7106323,7.1839905,2.9967346
		c0.3362579,0.190155,0.6251831,0.4717407,0.9160461,0.7332153c3.4246979,3.07901,6.1317749,6.7950134,9.1393127,10.2463989
		c1.9988098,2.2937927,3.9453583,4.668396,6.4004822,6.5167236c0.6922913,0.5211182,1.4916077,0.9154968,2.2779083,1.2928467
		c1.296051,0.6219788,2.5063934,0.3021851,3.1977997-0.944397c1.1429749-2.0606995,2.3340454-4.0936584,2.8685913-6.4499512
		c0.7418518-3.2701721,2.2476044-6.2071838,4.66185-8.5451355c1.8707123-1.8115845,4.0262299-3.1516418,6.6852722-3.7848816
		c3.4855042-0.8300476,6.0968933,0.5109253,8.573761,2.6393738c1.7940826,1.541687,3.5648346,3.1143494,4.8795624,5.0972595
		c1.2170868,1.8356323,2.4615784,3.6726379,2.5893555,6.0066223c0.0424957,0.7759094,0.3246002,1.538269,0.4927063,2.3078003
		c0.7011261,3.2091675,0.4011688,6.4816284,0.5977478,9.7226257c0.0983734,1.6213684-0.0038147,3.2547913,0.09021,4.8766479
		c0.0708313,1.2221985,0.2649689,2.4428711,0.4878082,3.6487427c0.1670532,0.9040222,1.6100616,1.1698608,2.4489136,0.464447
		c0.5214996-0.4385376,0.991272-0.9385986,1.4989014-1.4250488c0.8377228,0.427063,1.1468353,1.1474609,1.443222,1.8721619
		c0.829422,2.0280151,1.2243347,4.1497803,1.3977509,6.326416c0.2256165,2.8317261,0.6947784,5.6208191,1.2944946,8.4032593
		c0.266037,1.2343445,0.7681122,2.3228455,1.256424,3.4286804c0.9882813,2.2380981,2.9307404,2.463562,4.540741,0.6354675
		c1.0728607-1.2182312,1.1301422-2.6972961,1.1209869-4.1741333c-0.0110016-1.7749634-0.461853-3.4827576-0.8705597-5.2077026
		c-0.6358643-2.6838074-1.0668945-5.4030762-0.821167-8.2007751c0.3661041-4.1687317,4.1798706-6.0719604,7.7267151-4.6133423
		c2.9610596,1.2177124,5.464798,3.1604004,7.6733856,5.3940735c1.2549896,1.2692566,2.1561127,2.9404602,3.0125275,4.5398865
		c1.3899384,2.5959473,2.584549,5.2956543,3.9143524,7.9248657c1.010437,1.9977722,2.461441,3.421814,4.9142151,3.3325806
		c0.1965637-0.0071411,0.3943176,0.0281372,0.5915833,0.0292969c0.8023682,0.0046387,1.2557526,0.303894,0.7973175,1.5637207
		c0.5268097-0.5001221,0.7488251-0.710907,1.0189056-0.9672852c1.1224365,0.4402771,2.1496124,0.9899902,3.0331421,1.9355774
		c1.8444214,1.973999,3.3042145,4.1838074,4.1118469,6.7313232c0.6352844,2.0040588,1.258728,3.9962158,1.3332367,6.2062988
		c0.0657654,1.9492798,0.1121368,3.9179077,0.1514587,5.8724365c0.0603943,3.0026855-0.1636353,6.0119324-0.0773621,9.0129395
		c0.063385,2.203949,0.4524994,4.3971558,0.6522827,6.5991516c0.0899048,0.9911499,0.6429901,1.739502,1.1724548,2.4941711
		c0.5038605,0.7182312,1.0072021,0.8658447,1.7704163,0.3919983c0.8245392-0.5119324,1.5444794-1.1957092,2.292038-1.8258972
		c0.1828461-0.1541443,0.2875977-0.3979797,0.4414215-0.5900269c2.739212-3.4200134,6.0568085-2.5581055,8.2973785-0.7000122
		c1.6508789,1.3690491,3.0990295,3.0300598,4.0160522,5.0325623c0.5727844,1.250824,0.8746948,2.5555115,0.9206848,3.9727783
		c0.0651855,2.010498,0.3302917,4.0225525,0.6322327,6.0154114c0.3965454,2.6173401,0.7050781,5.2760315,1.7645569,7.7303162
		c0.5002441,1.1588135,1.2025452,2.2558899,1.9598694,3.2716064c0.8771362,1.1764526,1.4502869,1.2001343,2.8320007,0.8304443
		c1.2139587-0.3248291,2.472229-0.4937134,3.7175903-0.6889954c1.4151001-0.2218933,2.1580505,0.8970947,2.8977356,1.7269897
		c0.7351074,0.8247375,1.1068726,1.9627075,1.7123718,2.9160461c0.9229431,1.4530945,1.1517334,3.1128235,1.5867004,4.7247925
		c0.9036865,3.3490601,0.7176819,6.7394409,0.4715881,10.1217346c-0.1132507,1.5568237-0.5336914,3.0940552-0.8522644,4.6324463
		c-0.309967,1.4967041-0.7393188,2.972168-0.9767456,4.4789429c-0.1352234,0.8580933,0.0113525,1.7601929,0.0257568,2.6425171
		c0.0059814,0.3666992,18.4914551,17.2485352,18.4914551,19.2485352c0,0,0,0.8773804-0.5811157,1.1793213
		c-0.2962341,0.1539307-1.9258423-0.2431641-2.5194702-0.6581421c-4.4078674-3.0810547-20.6976318-22.170105-21.6886292-22.914917
		c-0.2969055-0.2232056-2.6018372-1.8991699-3.1427612-2.2733154c-0.8877563-0.6140137-1.8125305-1.1784058-2.6667786-1.835144
		c-0.4046936-0.3110962-2.5608521-1.7328491-2.8131104-1.9087524c-4.3175049-3.0115356-8.640564-6.0153198-12.9363403-9.0576172
		c-1.9207916-1.3602905-3.7531586-2.8460083-5.6815338-4.1949463c-2.2919312-1.6032104-4.6435394-3.1211548-6.9704132-4.674408
		c-0.4495239-0.3000793-4.314209-6.2601929-5.0516968-8.7726135c-0.3326416-1.1332703-2.7409058-10.6621094-2.8822479-12.8253174
		c-0.2402649-3.6761475-0.8334808-7.3334045-1.3723755-10.9847107c-0.5320129-3.6047363-1.1699677-7.1940613-1.7849274-10.7861328
		c-0.1661224-0.9703064-0.3992157-1.9304504-0.6329956-2.8876038c-0.7946625-3.2535095-1.5113678-6.5385742-2.8992767-9.6047058
		c-1.1352386-2.507843-2.3837891-4.9722595-4.1681213-7.1006165c-0.5961914-0.7111816-1.3054657-1.335907-2.0142212-1.940094
		c-0.266098-0.2268066-0.6775208-0.2831726-1.3544769-0.5460815c0.226532,0.5942993,0.2589569,0.9398499,0.4472961,1.1343994
		c2.8321228,2.9256287,4.5586548,6.5270386,6.0857086,10.2088318c0.7825012,1.8865662,1.1691437,3.9373779,1.733902,5.9141846
		c0.2232056,0.78125,1.3392029,6.3769226,1.4418793,6.9819336c0.5261993,3.1015015,1.0561829,6.204895,1.4620667,9.3235779
		c0.4190826,3.2202454,1.3386688,11.4174805,1.5308228,12.2722473c0.7005157,3.1156311,1.3778076,6.2374573,2.1481018,9.3360291
		c0.3779755,1.5204163,0.9295502,2.9986877,1.4263306,4.4881287c0.1854401,0.5559692-7.5887451-3.493042-11.3374786-5.9454651
		c-1.6850739-1.1023865-3.4646759-2.0595703-5.1916962-3.0987244c-0.6450806-0.3881531-4.9735413-3.1845398-5.6402893-3.6294861
		c-2.5342255-1.6911316-5.0584106-3.3973083-7.5861511-5.098175c-0.1628571-0.1095581-10.9230804-6.6864319-11.9991608-7.4799194
		c-1.4166107-1.0446472-2.8733673-2.0356445-4.3271027-3.0288391c-0.9754791-0.6664734-1.9495239-1.3425598-2.9740295-1.927063
		c-0.6790771-0.3874512-0.7411194-1.035675-0.8481445-1.6342773c-0.3294983-1.8425293-0.5882568-3.697876-0.8617249-5.5501404
		c-0.1365356-0.9249268-1.303894-10.4902954-1.9426117-14.3260193c-0.4194183-2.5187378-5.1365204-17.8316956-4.5072327-15.6186523
		c0.2679749,0.9424133,0.5861359,1.8782043,0.7574005,2.8391113c0.6204834,3.4812012,1.280899,6.9594116,1.7481079,10.4624939
		c0.4095459,3.0705261,1.2358704,11.3823242,1.3834686,12.4487c0.423584,3.0604553,0.8249359,6.1239624,1.2740326,9.4776001
		c-6.8249817-4.2268677-13.2030945-8.6238098-19.7484894-12.9510803c-0.1161499-0.0767822-1.5467377-9.7270813-2.5030365-13.342865
		c-0.9433899-3.566925-2.6043243-6.7875671-4.1875153-10.0737305c-1.3323059-2.7655029-2.9003754-5.3735657-4.5811615-7.9249878
		C149.4837646,413.2910767,146.8438263,409.6101685,146.2570801,408.8701477z"/>
	<path class="st2" d="M424.146759,413.4917603c-1.6808167,2.5514221-3.2488708,5.1594849-4.5811768,7.9249878
		c-1.5831909,3.2861633-3.2441101,6.5068054-4.1875305,10.0737305c-0.9562988,3.6157837-2.3868713,13.2660828-2.5030212,13.342865
		c-6.5453796,4.3272705-12.9235229,8.7242126-19.7485046,12.9510803c0.4491272-3.3536377,0.8504639-6.4171448,1.2740479-9.4776001
		c0.147583-1.0663757,0.973938-9.3781738,1.3834534-12.4487c0.4672241-3.5030823,1.127655-6.9812927,1.7481384-10.4624939
		c0.1712341-0.960907,0.4894104-1.896698,0.7573853-2.8391113c0.629303-2.2130432-4.0878296,13.0999146-4.5072327,15.6186523
		c-0.6387024,3.8357239-1.8060913,13.4010925-1.942627,14.3260193c-0.273468,1.8522644-0.532196,3.7076111-0.8616943,5.5501404
		c-0.1070557,0.5986023-0.1690979,1.2468567-0.848175,1.6342773c-1.0244751,0.5845032-1.9985352,1.2605896-2.9740295,1.927063
		c-1.4537354,0.9931946-2.9104919,1.9841919-4.3270874,3.0288391c-1.0760803,0.7934875-11.8363037,7.3703613-11.9991455,7.4799194
		c-2.527771,1.7008667-5.0519409,3.4070435-7.5861816,5.098175c-0.6667175,0.4449463-4.9952087,3.241333-5.6402893,3.6294861
		c-1.7270203,1.0391541-3.5065918,1.9963379-5.1916809,3.0987244c-3.7487183,2.4524231-11.5229187,6.5014343-11.3374634,5.9454651
		c0.4967651-1.4894409,1.0483398-2.9677124,1.4263306-4.4881287c0.7702942-3.0985718,1.4475708-6.2203979,2.1480713-9.3360291
		c0.1921692-0.8547668,1.1117554-9.052002,1.5308533-12.2722473c0.4058838-3.1186829,0.9358521-6.2220764,1.4620361-9.3235779
		c0.1026917-0.605011,1.218689-6.2006836,1.4418945-6.9819031c0.5647583-1.9768372,0.951416-4.0276489,1.7338867-5.9142151
		c1.5270691-3.6817932,3.2536011-7.2832031,6.0857239-10.2088318c0.1883545-0.1945496,0.2207642-0.5401001,0.4472961-1.1343994
		c-0.6769409,0.2629089-1.0883789,0.3192749-1.3544922,0.5460815c-0.7087402,0.604187-1.4179993,1.2289124-2.0141907,1.940094
		c-1.7843323,2.1283569-3.0328979,4.5927734-4.1681213,7.1006165c-1.3879395,3.0661621-2.1046448,6.3511963-2.899292,9.6047058
		c-0.2337646,0.9571533-0.4668579,1.9172974-0.6329956,2.8876038c-0.6149597,3.5920715-1.2529297,7.1813965-1.7849426,10.7861328
		c-0.5388794,3.6513367-1.1321106,7.3085632-1.372345,10.9847107c-0.1413574,2.163208-2.5496216,11.6920471-2.8822632,12.8253174
		c-0.7374878,2.5124207-4.6021729,8.4725342-5.0516968,8.7726135c-2.3268738,1.5532532-4.6784668,3.0711975-6.9704285,4.6744385
		c-1.9283752,1.3489075-3.7607117,2.8346252-5.6815186,4.1949158c-4.2957764,3.0422974-8.6188354,6.0460815-12.9363403,9.0575867
		c-0.2522583,0.1759644-2.4084167,1.5976563-2.8131104,1.9088135c-0.854248,0.6567383-1.7790222,1.2211304-2.6667786,1.835144
		c-0.5409241,0.3740845-2.8458557,2.0501099-3.1427612,2.2732544c-0.9909973,0.744812-17.2807617,19.8338623-21.6886292,22.914978
		c-0.5936279,0.414917-2.2232361,0.8120728-2.5194702,0.6581421c-0.5811157-0.302002-0.5811157-1.1793823-0.5811157-1.1793823
		c0-2,18.4854736-18.8818359,18.4914551-19.2484741c0.0144043-0.8823853,0.1609802-1.7844238,0.0257568-2.6425781
		c-0.2374268-1.5067749-0.6667786-2.9822388-0.9767456-4.4788818c-0.318573-1.5383911-0.7390137-3.0756226-0.8522644-4.6324768
		c-0.2460938-3.3822937-0.4320984-6.7726746,0.4715881-10.1217346c0.434967-1.611969,0.6637573-3.271698,1.5867004-4.7247925
		c0.6054993-0.9533386,0.9772644-2.0913086,1.7123718-2.9160461c0.7396851-0.829895,1.4826355-1.9488831,2.8977356-1.7269897
		c1.2453613,0.195282,2.5036316,0.3641663,3.7175903,0.6889954c1.3817139,0.3696899,1.9548645,0.3460083,2.8320007-0.8304443
		c0.7573242-1.0157166,1.4596252-2.112793,1.9598694-3.2716064c1.0594788-2.4542847,1.3680115-5.1129761,1.7645569-7.7303162
		c0.3019409-1.9928589,0.5670471-4.0049133,0.6322327-6.0154114c0.04599-1.4172668,0.3479004-2.7219543,0.9206848-3.9727783
		c0.9170227-2.0025024,2.3651733-3.6635132,4.0160522-5.0325623c2.2405701-1.8580933,5.5581665-2.7199707,8.2973938,0.7000122
		c0.1538086,0.1920471,0.2585754,0.4358826,0.4414063,0.5900269c0.7475586,0.630188,1.4674988,1.3139648,2.2920227,1.8258972
		c0.7632141,0.4738464,1.266571,0.3262329,1.7704468-0.3919983c0.5294495-0.7546692,1.0825195-1.5030212,1.1724243-2.4941711
		c0.1997986-2.2019958,0.5888977-4.3952026,0.6522827-6.5991516c0.0863037-3.0010071-0.1377258-6.0102539-0.0773621-9.0129395
		c0.0393372-1.9545288,0.0857239-3.9231567,0.1514587-5.8724365c0.0745239-2.210083,0.6979675-4.20224,1.333252-6.2062683
		c0.8076172-2.5475464,2.2674255-4.7573547,4.1118469-6.7313538c0.8835449-0.9455872,1.9107056-1.4953003,3.0331421-1.9355774
		c0.2700806,0.2563782,0.4920959,0.4671631,1.0189209,0.9673157c-0.4584656-1.2598572-0.0050659-1.5591125,0.7973022-1.5637512
		c0.1972656-0.0011597,0.3950195-0.036438,0.5915833-0.0292664c2.4527588,0.0892029,3.9037781-1.3348389,4.9142151-3.3326111
		c1.3298035-2.6292114,2.5244141-5.3289185,3.9143677-7.9248657c0.8564148-1.5994263,1.7575378-3.2706299,3.0125122-4.5398865
		c2.2085876-2.2336731,4.7123108-4.1763611,7.6734009-5.3940735c3.5468445-1.4586182,7.3605957,0.4446106,7.7266846,4.6133423
		c0.2457275,2.797699-0.1852722,5.5169983-0.8211365,8.2007751c-0.4087219,1.7249451-0.8595581,3.4327393-0.870575,5.2077026
		c-0.0091553,1.4768372,0.0481262,2.9559326,1.1210022,4.1741333c1.6099854,1.8280945,3.5524597,1.6026306,4.5407104-0.6354675
		c0.4883423-1.105835,0.9904175-2.1943359,1.2564392-3.4286804c0.5997314-2.7824402,1.0688782-5.5715332,1.2944946-8.4032593
		c0.1734009-2.1766357,0.5683289-4.2984009,1.3977356-6.3263855c0.2964172-0.7247314,0.6055298-1.4451294,1.4432373-1.8721924
		c0.5076294,0.4864502,0.977417,0.9865112,1.4989014,1.4250488c0.8388367,0.7054138,2.2818604,0.4395752,2.4489136-0.464447
		c0.2228394-1.2058716,0.4169922-2.4265442,0.4878235-3.6487427c0.0939941-1.6218567-0.0081787-3.2552795,0.0901794-4.8766479
		c0.1965942-3.2409973-0.103363-6.5134583,0.5977478-9.7226257c0.1681213-0.7695313,0.4502258-1.5318909,0.4927368-2.3078003
		c0.1277466-2.3339844,1.3722534-4.17099,2.589325-6.0066223c1.3147583-1.9829102,3.0854797-3.5555725,4.8795776-5.0972595
		c2.4768677-2.1284485,5.0882568-3.4694214,8.573761-2.6393738c2.6590271,0.6332397,4.8145752,1.9732971,6.6852722,3.7848816
		c2.4142456,2.3379517,3.9199829,5.2749634,4.6618652,8.5451355c0.5345459,2.3562927,1.7256165,4.3892822,2.8685913,6.4499512
		c0.6914063,1.246582,1.9017334,1.5663757,3.1977844,0.944397c0.7862854-0.3773499,1.5856323-0.7717285,2.2778931-1.2928467
		c2.4551392-1.8483276,4.4016724-4.2229309,6.4005127-6.5167236c3.0075378-3.4513855,5.7145996-7.1673889,9.1392822-10.2463989
		c0.290863-0.2614746,0.5798035-0.5430603,0.9160461-0.7332153c2.2738953-1.2861023,4.5487976-2.5930786,7.1839905-2.9967346
		c1.3582764-0.2080688,2.7602844-0.5379028,4.0892334-0.375824c0.787262,0.0960083,1.5301208,0.9820251,2.1896362,1.6196594
		c2.0018005,1.9353943,3.3925476,4.1829529,3.283905,7.1040955c-0.0328369,0.8832092-0.046814,1.7712097-0.152832,2.6469116
		c-0.4491272,3.7102966,3.3792114,5.0430908,5.7528076,3.9389038c1.4096985-0.6558228,2.7995911-1.4667664,3.9862976-2.4610901
		c1.4946594-1.2523499,3.2764282-2.1482239,4.4978943-3.7672729c0.5643005-0.7480164,1.4819336-1.2460938,2.2811279-1.796875
		c1.8268127-1.2590027,3.6931763-2.5119934,5.9642334-2.7428284c2.5674133-0.2609558,5.0694275-0.0311279,7.4235229,1.2518311
		c2.8110352,1.5320129,3.1734009,3.6838684,1.9781799,6.0212402c-0.2469788,0.4830017-0.5013428,0.962677-0.7335205,1.4527588
		c-0.8006287,1.6898499-1.7110901,3.3391724-1.941803,5.241333c-0.1903076,1.5689392,0.5996704,2.8691406,1.9258728,3.420105
		c1.0427246,0.433197,2.0488892,0.9647827,3.0394897,1.510376c1.1574402,0.6374512,2.0013123,1.4707336,1.5199585,2.9771118
		c-0.0712585,0.2230225,0.0144348,0.4914856-0.0063477,0.7360229c-0.2548828,3.0001221-1.0469055,5.8763123-2.9068909,8.2424011
		c-1.6611633,2.1130981-3.6677551,3.9554749-5.531311,5.9083557c-1.425415,1.4937439-2.9249268,2.9224854-4.2669067,4.4869995
		c-0.4711914,0.5493164-0.8197021,1.4306946-0.7793274,2.1349792c0.0513611,0.8964844,0.4527283,1.8205261,0.8823547,2.6385803
		c1.1894836,2.2648315,2.4857483,4.4732361,3.7130737,6.7185364c0.9051819,1.6559143,1.6224976,3.4118958,1.5881348,5.3161621
		c-0.0354309,1.9613342-0.2618713,3.9224854-0.4708252,5.8766174c-0.260498,2.4364014-1.3300781,4.4963379-3.4739075,5.7185364
		c-2.8161011,1.6054382-5.8129272,2.8841858-8.9501038,3.7221069c-4.271759,1.1409302-8.6254272,1.9428101-12.8742371,3.209259
		c-3.6990662,1.1025696-7.20401,2.5789185-10.5031738,4.550415c-1.0335999,0.6176453-1.9503479,1.4914856-1.9548035,2.7939148
		c-0.0047302,1.3757324,0.1416626,2.7945862,1.0455627,3.9324036c0.9428406,1.1868591,1.9308167,2.3459473,2.9855957,3.4332275
		c0.8470764,0.8731995,1.7918396,1.6609497,2.749054,2.4159241c1.8589478,1.466217,3.7313232,2.9098511,5.0464478,4.9284058
		c1.140564,1.7507324,1.7670288,3.7702026,1.499939,5.7502136c-0.561615,4.1636353-2.1946716,7.8087158-5.9158936,10.2929993
		c-3.0040283,2.0054932-6.2650757,2.7833252-9.7763367,2.5930176c-1.8076477-0.0979919-3.6042175-0.4753723-5.3952332-0.787262
		c-2.4919739-0.4339905-4.4489441,0.7749634-6.3937378,2.0172729c-0.2663879,0.1701355-0.4757996,0.5219116-0.5818176,0.8337097
		c-0.3464661,1.0189209-0.6378174,2.0568237-0.9412537,3.0900879c-0.3919983,1.3347473-1.0551147,2.3555298-2.6463928,2.3031311
		c-0.6300659-0.0207825-1.2692566-0.0079651-1.8867798-0.1132507c-1.1516113-0.1963806-2.2991028-0.4333801-3.4317322-0.7193298
		c-0.9025269-0.2278137-5.8797913,2.5097351-7.6498718,2.803009c-1.7111816,0.2835693-3.3866272-0.0315552-4.914856-0.7032776
		c-2.5535889-1.122345-5.157135-2.1221619-7.5849915-3.5629272c-2.7275696-1.6186218-5.5747986-2.9892273-8.9078064-3.1699829
		c-2.1270752-0.1153564-4.1694031-0.0873108-6.0080566,0.946106c-2.6105652,1.4672241-3.7434082,3.6385803-2.3271484,6.546051
		c1.2106934,2.4855347,3.3236084,4.1988831,5.4112854,5.8974609c1.7935486,1.4592896,3.3894348,2.9764404,4.4901123,5.131958
		c1.3150635,2.5753174,1.2963257,4.8692017-0.1700745,7.2564087c-0.0516357,0.0839844-0.0893555,0.1765137-0.1404724,0.2608643
		c-1.350647,2.2279053-3.0776672,3.9543457-5.8059082,4.3352661c-0.9732971,0.1359253-1.9715576,0.1669312-2.9177551,0.4065552
		c-1.5774231,0.3995361-3.0005493,0.0106812-4.4372253-0.5646973c-1.0933533-0.4378662-2.1933594-0.8955688-3.3320313-1.1746826
		c-1.5113525-0.3703613-3.0124207-0.4241333-4.2720337,0.8178711c-1.0451355,1.0305786-2.1872864,1.9626465-3.2344666,2.991333
		c-0.5514526,0.541687-1.117218,0.8950195-1.9086304,0.9907837c-2.4933472,0.3017578-4.9807739,0.6526489-7.5021973,0.4821777
		c-0.9803467-0.0662842-1.9862976-0.0501709-2.9321594-0.2751465c-2.7947693-0.6647339-5.5811768-1.3279419-8.4267883-1.7773438
		c-3.1713867-0.5008545-6.3562317-1.055603-9.4396362-1.9255981c-2.0859375-0.588562-4.4408264-0.2280273-6.2765808-1.7064819
		c-0.0224304-0.0180054-0.0766602-0.0091553-0.1111755,0.0020752c-1.0946045,0.3560791-1.9132996-0.4639282-2.8663025-0.7000122
		c-1.497406-0.3709106-2.8619995-1.163269-4.4543457-1.2990723c-1.2041626-0.1027222-2.4440613-0.2999268-3.5668335-0.7235107
		c-1.715332-0.6470947-3.4395752-0.6574707-5.2096558-0.5710449c-1.8916626,0.0924072-3.787323,0.1052246-5.6785583,0.2037964
		c-2.6442566,0.1378174-5.318573-0.2003174-7.930603,0.4935913c-0.2319031,0.0615845-0.7009277-0.3824463-0.6360474-0.428894
		c3.0618591-2.1920776,6.1197815-4.3898926,9.2048035-6.5490112c0.4204712-0.2942505,4.4742737-3.1382446,5.4752502-3.8837891
		c0.1221008,0.0100708,3.6894836-2.9659424,7.4671326-4.2625427c3.6412659-1.2497864,7.4883118-0.8246765,8.0873108-0.6712646
		c2.2254028,0.5699158,4.4625244,1.0960693,6.6788635,1.6989746c2.6900635,0.731842,5.3539124,1.5608521,8.0474243,2.2791138
		c2.4641113,0.6571045,4.9205322,1.462677,7.5067444,1.3823547c0.8747253-0.0271606,6.5995483-0.5344238,7.6445923-0.7497864
		c1.8311768-0.3773499,3.6538086-0.8039246,5.4653625-1.2670898c2.3494263-0.600708,6.3450317-3.5935669,6.3740845-3.9752502
		c-0.609314,0.2664795-3.7582092,1.7616882-4.9910889,2.096405c-0.3325806,0.0903015-0.6752319,0.1489868-1.0007629,0.2591858
		c-3.5738525,1.2098083-7.2825623,1.6413879-11.0198059,1.8323059c-1.3566284,0.0693359-2.7732544,0.0867004-4.080658-0.22052
		c-3.450531-0.8108215-6.8572693-1.8086853-10.2790833-2.7407837c-0.8243408-0.2245483-1.6394958-0.4828186-2.4588928-0.7255859
		c-0.0147095-0.0987244-9.5433655-2.3140869-13.3235779-2.0482788c1.8730469-1.3475647,3.4587402-2.692627,5.2308044-3.7146301
		c2.5541687-1.4730835,4.8414917-3.3114929,7.2755737-4.9448853c2.0646057-1.3854675,4.0161438-2.9389648,6.0755615-4.3326111
		c1.9066467-1.2901917,3.8938599-2.4608459,5.8382874-3.6956482c1.650116-1.0479126,3.2824402-2.1239319,4.9356995-3.1667786
		c2.8170471-1.7768555,5.6727905-3.4941406,8.4574585-5.3200073c1.8833008-1.2348633,3.6237183-2.6891785,5.5175476-3.9060059
		c1.9759827-1.2695923,4.0605774-2.3699036,6.0952454-3.5484009c1.6577148-0.9601135,3.4690857-1.7381592,4.9185791-2.9486694
		c1.1881409-0.9922485,2.0666199-0.8386536,3.1463013-0.1588745c2.0766907,1.3074951,20.7417297,9.2909546,24.355896,9.618042
		c2.1854858,0.1977844,30.3625488,0.8926392,30.2478027,0.3835754c-0.1166077-0.5174255-25.5046997-1.6956787-29.0491028-2.1285706
		c-0.0921021-0.0112305-3.6884766-0.7316589-4.259613-0.9062805c-2.9152527-0.8913879-20.1876221-9.0622864-20.6732178-9.3939819
		c0.3043213-0.2522888,0.4491577-0.3889771,0.6100464-0.5030518c1.4840393-1.0524597,2.9458008-2.1392212,4.4663086-3.1362305
		c0.8904724-0.5839233,5.4085999-3.2862549,5.5318604-3.368042c1.7596436-1.1674194,3.5171814-2.3380127,5.2794495-3.5014954
		c1.3946228-0.9207764,2.803833-1.8197327,4.1907349-2.7518921c2.0855713-1.4017639,4.1130676-2.8952026,6.2448425-4.2217407
		c3.587677-2.2325439,7.1377563-4.5076904,10.4500427-7.1433411c2.9246521-2.3272095,5.9980469-4.4692688,8.6712952-7.1066895
		c0.3620605-0.3572388,4.3640747-3.5622864,5.204895-4.2075195c1.1660156-0.8947754,19.1999207-14.4579773,19.5365906-14.7144165
		c1.2521973-0.9538269,2.5086365-1.9030151,3.7862854-2.8222656c2.0766907-1.4941711,7.1568298-5.6146545,7.0239563-6.3990479
		c-0.6982422-0.4277649-37.4989319,27.7374268-38.3063965,28.3786926c-2.6564026,2.1095276-5.3425598,4.1816406-8.0172424,6.268158
		c-0.72229,0.5634155-1.4444275,1.1270447-2.166626,1.6906128c-0.0927429-0.053894,0.598877-4.8683167,1.1789551-7.1861877
		c0.7281799-2.9098206,1.4917297-5.8210449,2.458374-8.6572266c0.6441345-1.8900146,1.6970825-3.6377869,2.5177917-5.4712524
		c1.206604-2.6956482,2.6634216-5.2513428,4.2934875-7.7049866c0.8920288-1.3427734,1.8977966-2.6108093,2.8692932-3.8997192
		c2.3055725-3.0588379,13.6769714-14.1061096,13.4456482-14.6931458
		c-0.2191772-0.5561829-12.3872375,10.4987488-14.1920776,12.7750549
		C427.1561584,409.2499695,424.5162354,412.9308777,424.146759,413.4917603z"/>
</g>
</svg>
